<?xml version="1.0" encoding="UTF-8" standalone="no"?>
<svg
   xmlns:dc="http://purl.org/dc/elements/1.1/"
   xmlns:cc="http://creativecommons.org/ns#"
   xmlns:rdf="http://www.w3.org/1999/02/22-rdf-syntax-ns#"
   xmlns:svg="http://www.w3.org/2000/svg"
   xmlns="http://www.w3.org/2000/svg"
   xmlns:xlink="http://www.w3.org/1999/xlink"
   xmlns:sodipodi="http://sodipodi.sourceforge.net/DTD/sodipodi-0.dtd"
   xmlns:inkscape="http://www.inkscape.org/namespaces/inkscape"
   width="110.55023mm"
   height="110.31369mm"
   viewBox="0 0 110.55023 110.31369"
   version="1.1"
   id="svg8"
   sodipodi:docname="type_check_logo_icon_flat.svg"
   inkscape:version="1.0 (4035a4fb49, 2020-05-01)"
   inkscape:export-filename="/home/qqwy/Desktop/type_check_logo_icon.png"
   inkscape:export-xdpi="96"
   inkscape:export-ydpi="96">
  <defs
     id="defs2">
    <linearGradient
       id="linearGradient1677"
       inkscape:collect="always">
      <stop
         id="stop1673"
         offset="0"
         style="stop-color:#c01d90;stop-opacity:1" />
      <stop
         id="stop1675"
         offset="1"
         style="stop-color:#3c1a6d;stop-opacity:1" />
    </linearGradient>
    <linearGradient
       inkscape:collect="always"
       id="linearGradient1525">
      <stop
         style="stop-color:#c01d90;stop-opacity:1"
         offset="0"
         id="stop1521" />
      <stop
         style="stop-color:#1a0b2f;stop-opacity:1"
         offset="1"
         id="stop1523" />
    </linearGradient>
    <linearGradient
       id="linearGradient1519"
       inkscape:collect="always">
      <stop
         id="stop1515"
         offset="0"
         style="stop-color:#21005f;stop-opacity:1" />
      <stop
         id="stop1517"
         offset="1"
         style="stop-color:#ff7800;stop-opacity:1" />
    </linearGradient>
    <linearGradient
       inkscape:collect="always"
       id="linearGradient1499">
      <stop
         style="stop-color:#5f005f;stop-opacity:1"
         offset="0"
         id="stop1495" />
      <stop
         style="stop-color:#ff00a2;stop-opacity:1"
         offset="1"
         id="stop1497" />
    </linearGradient>
    <linearGradient
       inkscape:collect="always"
       xlink:href="#linearGradient1499"
       id="linearGradient1503"
       x1="66.755333"
       y1="169.48212"
       x2="139.44336"
       y2="101.43164"
       gradientUnits="userSpaceOnUse" />
    <linearGradient
       inkscape:collect="always"
       xlink:href="#linearGradient1519"
       id="linearGradient1513"
       gradientUnits="userSpaceOnUse"
       x1="66.755333"
       y1="169.48212"
       x2="139.44336"
       y2="101.43164"
       gradientTransform="translate(-170.81267,17.109393)" />
    <linearGradient
       inkscape:collect="always"
       xlink:href="#linearGradient1525"
       id="linearGradient1527"
       x1="115.63013"
       y1="127.35429"
       x2="98.52491"
       y2="157.73894"
       gradientUnits="userSpaceOnUse"
       gradientTransform="matrix(1.1915855,0,0,1.1915855,-19.110765,-27.128269)" />
    <filter
       inkscape:collect="always"
       style="color-interpolation-filters:sRGB"
       id="filter1629"
       x="-0.075603619"
       width="1.1512072"
       y="-0.074405938"
       height="1.1488119">
      <feGaussianBlur
         inkscape:collect="always"
         stdDeviation="1.2945182"
         id="feGaussianBlur1631" />
    </filter>
    <linearGradient
       inkscape:collect="always"
       xlink:href="#linearGradient1677"
       id="linearGradient1671"
       gradientUnits="userSpaceOnUse"
       gradientTransform="matrix(1.1915855,0,0,1.1915855,-19.110765,-27.128269)"
       x1="92.566635"
       y1="153.11858"
       x2="112.10806"
       y2="128.92543" />
    <linearGradient
       inkscape:collect="always"
       xlink:href="#linearGradient1525"
       id="linearGradient1689"
       x1="285.314"
       y1="130.43881"
       x2="283.39825"
       y2="173.00931"
       gradientUnits="userSpaceOnUse" />
    <linearGradient
       y2="128.92543"
       x2="112.10806"
       y1="153.11858"
       x1="92.566635"
       gradientTransform="matrix(1.1915855,0,0,1.1915855,-19.110765,-27.128269)"
       gradientUnits="userSpaceOnUse"
       id="linearGradient68"
       xlink:href="#linearGradient1677"
       inkscape:collect="always" />
  </defs>
  <sodipodi:namedview
     id="base"
     pagecolor="#ffffff"
     bordercolor="#666666"
     borderopacity="1.0"
     inkscape:pageopacity="0.0"
     inkscape:pageshadow="2"
     inkscape:zoom="0.22433274"
     inkscape:cx="1427.6421"
     inkscape:cy="-107.58654"
     inkscape:document-units="mm"
     inkscape:current-layer="layer1"
     inkscape:document-rotation="0"
     showgrid="false"
     inkscape:window-width="1920"
     inkscape:window-height="1029"
     inkscape:window-x="0"
     inkscape:window-y="0"
     inkscape:window-maximized="1"
     fit-margin-top="0"
     fit-margin-left="0"
     fit-margin-right="0"
     fit-margin-bottom="0"
     showborder="true" />
  <metadata
     id="metadata5">
    <rdf:RDF>
      <cc:Work
         rdf:about="">
        <dc:format>image/svg+xml</dc:format>
        <dc:type
           rdf:resource="http://purl.org/dc/dcmitype/StillImage" />
        <dc:title></dc:title>
      </cc:Work>
    </rdf:RDF>
  </metadata>
  <g
     inkscape:label="Layer 1"
     inkscape:groupmode="layer"
     id="layer1"
     transform="translate(-45.312078,-84.393589)">
    <g
       id="g914">
      <path
         id="path34"
         style="fill:#800080;stroke:none;stroke-width:0.714331;stroke-miterlimit:4;stroke-dasharray:none"
         d="m 379.71094,321.20312 c -11.20448,-0.007 -22.30411,0.43946 -28.07813,1.34376 -12.82901,2.00919 -21.58348,3.92087 -22.58984,4.93164 -1.27441,1.27999 -0.38342,5.06526 12.88672,54.74804 6.12306,22.92442 11.13281,41.83434 11.13281,42.02149 0,0.18714 0.88448,0.16397 1.96484,-0.0508 9.46792,-1.88201 12.68321,-2.17031 24.10547,-2.15821 9.02754,0.01 14.85594,0.37991 19.56641,1.24219 3.68979,0.67543 6.84216,1.09533 7.0039,0.93359 0.82267,-0.82268 25.91336,-96.46754 25.42774,-96.92968 -0.8083,-0.76922 -12.63619,-3.2176 -22.71094,-4.70118 -6.19378,-0.91206 -17.5045,-1.37357 -28.70898,-1.38086 z m 55.58008,7.68165 c -1.14261,0.003 -1.4898,0.52092 -1.70118,1.48242 -0.19432,0.88393 -3.57978,13.33844 -7.52343,27.67773 -5.91179,21.49557 -15.94148,59.08992 -17.47657,65.50586 -0.32199,1.34577 0.10733,1.75393 2.93946,2.79102 7.69031,2.81608 13.73076,5.57852 20.25195,9.26172 7.1201,4.02145 17.01222,11.02752 19.42773,13.75976 0.74839,0.84652 1.51904,1.53906 1.7129,1.53906 1.46123,0 70.14062,-69.52848 70.14062,-71.00781 0,-2.33895 -20.95883,-19.51523 -32.66211,-26.76758 -13.63226,-8.4477 -31.33659,-16.86314 -45.36133,-21.56054 -5.49533,-1.84059 -8.27898,-2.68578 -9.74804,-2.68164 z m -111.60547,0.002 c -1.47623,-0.002 -4.27939,0.84955 -9.82422,2.70312 -15.38479,5.14295 -35.90506,15.21644 -49.25,24.17969 -7.15458,4.80545 -22.9421,17.43906 -26.88086,21.50977 l -2.83203,2.92578 35.32226,35.34961 c 19.4271,19.4418 35.42992,35.34765 35.5625,35.34765 0.13258,0 2.38698,-1.82303 5.00977,-4.05273 9.35665,-7.95435 21.42198,-14.90826 33.33984,-19.21289 5.19776,-1.87738 6.3892,-2.57285 6.2168,-3.63477 -0.42339,-2.60792 -9.68067,-37.60941 -17.06641,-64.52734 -4.14999,-15.125 -7.70246,-28.22349 -7.89453,-29.10742 -0.20912,-0.96239 -0.55494,-1.4791 -1.70312,-1.48047 z m 67.66797,19.21289 c 2.07277,-0.0683 3.18376,0.15628 3.5,0.66797 0.76637,1.24002 3.53078,23.47898 2.98632,24.02344 -1.11828,1.11828 -2.04809,-1.28595 -3.38476,-8.74414 -1.83085,-10.21557 -1.77029,-10.09139 -3.76563,-7.66407 -4.07938,4.96253 -16.29205,22.44506 -16.07812,23.01563 0.1305,0.34806 2.08482,2.13196 4.34375,3.96484 2.25893,1.83288 4.10742,3.67013 4.10742,4.08399 0,1.24772 -3.45209,0.003 -7.39844,-2.66797 l -3.67383,-2.48633 -1.07031,1.60937 c -0.58928,0.8851 -1.98831,2.6612 -3.10937,3.94727 -3.81871,4.38082 -4.59874,2.0735 -1.17774,-3.48633 1.17857,-1.91543 2.14453,-3.75848 2.14453,-4.09766 0,-0.33917 -1.74209,-1.96055 -3.86914,-3.60156 -2.12705,-1.64101 -4.04396,-3.44813 -4.26172,-4.01562 -0.73302,-1.9102 2.65227,-1.1197 6.29297,1.46875 1.93397,1.375 3.78293,2.5 4.10743,2.5 0.72261,0 9.03971,-11.14919 14.11914,-18.92774 2.6975,-4.13125 3.44376,-5.7738 2.69336,-5.92773 -0.57087,-0.1171 -4.13073,0.28441 -7.91016,0.89258 -8.10375,1.30402 -9.74414,1.36423 -9.74414,0.35547 0,-1.24786 4.24614,-2.61432 11.87109,-3.82032 4.16952,-0.65947 7.20457,-1.02155 9.27735,-1.08984 z m -107.29688,20.05273 c 0.46151,0.007 1.11802,0.10355 2.04102,0.27735 4.03544,0.75987 12.92478,0.77164 17.14257,0.0234 4.19108,-0.74347 4.62819,0.5673 0.97657,2.93165 -3.01628,1.95298 -7.21454,7.03306 -8.64844,10.46484 -0.60256,1.44214 -1.29469,5.11277 -1.53906,8.1582 l -0.44532,5.53711 2.16016,-2.02148 c 1.1876,-1.11184 3.39754,-2.30099 4.91211,-2.64258 3.28119,-0.74003 8.577,0.28157 10.50391,2.02539 5.00018,4.5251 4.18224,13.93839 -1.45899,16.79492 -2.38682,1.20861 -6.31788,1.83662 -8.78125,1.40235 -0.98214,-0.17315 -3.13398,-1.62481 -4.78125,-3.22461 -2.984,-2.89803 -3.00271,-2.90424 -4.89844,-1.66211 -2.465,1.61513 -3.53365,0.63379 -2.35351,-2.16211 0.48302,-1.14433 1.0662,-6.09906 1.29492,-11.00977 0.39224,-8.42146 0.5617,-9.22107 2.99024,-14.08594 2.81886,-5.64679 2.93566,-5.32469 -2.25196,-6.25586 -3.86612,-0.69395 -7.85742,-2.61863 -7.85742,-3.78906 0,-0.53562 0.22495,-0.77264 0.99414,-0.76172 z m 164.82227,0.90821 c 0.92183,-0.0566 1.82222,0.18718 3.19726,0.76172 2.18293,0.91208 3.06435,0.97449 4.3086,0.30859 1.91306,-1.02384 5.71509,-0.37558 7.96679,1.35742 1.58295,1.2183 1.67388,1.84 2.30274,15.87695 0.35998,8.03514 0.66313,15.5948 0.67382,16.79883 0.0159,1.79514 0.47607,2.40516 2.55079,3.39453 2.27628,1.08548 2.73561,1.10057 4.5957,0.13868 3.01397,-1.55858 3.30784,-2.50782 0.77344,-2.50782 -1.44272,0 -2.18555,-0.35602 -2.18555,-1.04687 0,-1.39213 1.78921,-2.27719 5.82812,-2.88281 2.92813,-0.43906 3.42707,-0.31897 4.13086,0.99609 0.44014,0.82241 0.87124,3.14877 0.95704,5.17187 0.17507,4.12671 -1.15826,5.52353 -2.33008,2.44141 l -0.70899,-1.86328 -2.83789,1.44922 c -4.40544,2.24749 -8.53029,1.94032 -11.71875,-0.87305 l -2.63086,-2.32226 -0.65234,-15.35743 c -0.35898,-8.44643 -0.86111,-15.89366 -1.11523,-16.55078 -0.90627,-2.34341 -4.08,-2.34341 -4.99024,0 -0.25524,0.65712 -0.7087,7.54169 -1.00781,15.30078 -0.29911,7.7591 -0.75779,14.32224 -1.01953,14.58399 -1.19118,1.19118 -1.5435,-1.49939 -1.91211,-14.62695 -0.43687,-15.55817 -0.91001,-17.51693 -4.14453,-17.14258 -2.49847,0.28915 -2.79903,1.79894 -2.90625,14.58593 -0.0905,10.79083 -0.64407,16.70704 -1.5625,16.70704 -1.09729,0 -1.48418,-2.97696 -2.03125,-15.60743 -0.30342,-7.0052 -0.7831,-13.10919 -1.06446,-13.56445 -0.70888,-1.14699 -2.22231,-1.03416 -3.2832,0.24414 -1.23803,1.49173 -2.85742,1.33906 -2.85742,-0.26953 0,-1.96519 1.52083,-2.91699 5.81836,-3.63867 2.10373,-0.35327 4.83288,-1.0034 6.0664,-1.44531 0.67444,-0.24161 1.23597,-0.38401 1.78907,-0.41797 z m -216.41797,13.03125 -3.71875,4.07031 c -9.60043,10.50439 -17.71782,21.21632 -24.43946,32.25391 -10.78092,17.70333 -25.24071,51.67794 -22.94335,53.90625 0.3477,0.33725 20.56081,5.96414 44.91796,12.5039 24.35714,6.53977 45.73214,12.29459 47.5,12.78711 l 3.21289,0.89453 1.22852,-2.55273 c 0.67492,-1.40397 2.2173,-5.12278 3.42969,-8.26563 3.95559,-10.25403 12.88269,-24.56825 20.05664,-32.16211 l 2.04101,-2.16015 -35.64257,-35.63672 z m 293.8164,0.19336 -35.68164,35.23046 -35.67968,35.23243 4.16015,4.90234 c 8.52619,10.0506 16.71739,24.34675 20.38477,35.57422 1.01019,3.09264 1.95744,4.82031 2.64062,4.82031 1.52753,0 84.61321,-22.21146 92.56641,-24.74609 3.9915,-1.27206 4.00684,-0.49756 -0.26367,-13.28906 -8.67288,-25.97792 -25.48111,-54.15701 -43.47266,-72.88086 z m -222.19922,11.47461 c -2.20176,0 -3.16226,0.52199 -5.51953,3 -1.58371,1.66482 -2.48911,3.12146 -2.0332,3.27343 0.45184,0.15061 0.82227,1.15228 0.82227,2.22461 0,1.92046 2.70357,5.16481 5,6 0.58929,0.2143 1.50023,0.25319 2.02343,0.0879 0.5232,-0.1653 1.22215,-0.30078 1.55274,-0.30078 0.33058,0 1.58816,-0.83059 2.79687,-1.84765 1.85289,-1.5591 2.19922,-2.35383 2.19922,-5.05665 0,-4.28012 -2.8749,-7.38085 -6.8418,-7.38085 z m 215.73829,32.08398 c 5.64815,-0.0523 11.16042,3.05879 13.66211,8.99805 2.0431,4.85054 1.50487,10.03849 -1.6875,16.24023 -0.15167,0.29465 0.52701,0.53516 1.50976,0.53516 2.47037,0 4.04688,0.69498 4.04688,1.78515 0,1.31681 -1.67937,1.78711 -6.39844,1.78711 -5.93347,0 -6.419,-0.98156 -2.84961,-5.76562 3.34068,-4.47744 3.84099,-6.01884 3.35351,-10.34375 -1.27971,-11.35368 -16.76768,-14.07345 -21.97851,-3.85938 -2.76971,5.42909 -0.93765,12.52194 4.15625,16.08985 1.84471,1.29208 2.04237,2.83171 0.44336,3.44531 -0.62142,0.23847 -3.04157,0.43359 -5.37891,0.43359 -3.05632,0 -4.36024,-0.29311 -4.64648,-1.03906 -0.62148,-1.61953 0.3339,-2.5332 2.64844,-2.5332 h 2.12109 l -1.62695,-2.20313 c -1.40571,-1.90132 -1.62891,-3.0638 -1.62891,-8.5039 0,-5.95465 0.11986,-6.45543 2.18359,-9.04883 3.20173,-4.02348 7.67731,-5.97691 12.07032,-6.01758 z m -287.00196,7.20117 c 2.55805,0 3.74806,0.95971 9.5293,7.67969 2.64381,3.0731 5.82204,1.75426 8.46289,-3.51172 2.21549,-4.41779 7.67985,-5.52131 11.48633,-2.31836 1.33507,1.12339 2.19726,2.52602 2.19726,3.57227 0,2.23206 -1.21005,2.19135 -3.01367,-0.10157 -1.14904,-1.46077 -1.95162,-1.78105 -4.02734,-1.60742 -2.22324,0.18598 -2.91955,0.71973 -4.90039,3.75391 -1.27006,1.94543 -3.04027,3.94345 -3.9336,4.43945 -0.89332,0.496 -2.70149,0.91188 -4.01757,0.92578 -2.45586,0.026 -4.56138,-1.70675 -8.55469,-7.04101 -2.12035,-2.83235 -5.15988,-3.01041 -7.40039,-0.4336 -1.84348,2.12019 -3.4375,2.32064 -3.4375,0.43164 0,-2.24744 4.65504,-5.78906 7.60937,-5.78906 z m -0.19726,17.85742 c 2.14635,0 2.98706,0.5581 5.85742,3.88282 4.17662,4.83776 6.86925,6.14571 8.89062,4.3164 0.77569,-0.70199 1.41211,-1.68533 1.41211,-2.18359 0,-0.49826 0.8223,-1.88278 1.82813,-3.07813 3.12869,-3.71824 8.86263,-3.86277 12.16015,-0.30468 1.62832,1.757 2.35778,4.5191 1.18946,4.5039 -0.29465,-0.004 -1.92507,-1.11108 -3.62305,-2.46094 -2.73507,-2.17433 -3.2924,-2.36224 -4.88476,-1.63671 -1.02242,0.46585 -2.26798,1.9956 -2.88868,3.54687 -0.60013,1.49989 -1.9011,3.36422 -2.89062,4.14258 -2.49179,1.96006 -7.90582,1.92502 -10.4375,-0.0664 -1.03513,-0.81422 -1.88281,-1.89454 -1.88281,-2.40234 0,-1.2107 -2.61337,-4.50777 -4.28125,-5.40039 -1.04277,-0.55808 -1.92993,-0.18815 -4.29883,1.79101 -3.34516,2.7948 -4.28492,3.06789 -4.26172,1.24219 0.0379,-2.98427 4.04204,-5.89258 8.11133,-5.89258 z m 284.59179,13.66993 c 8.47387,-0.0584 19.39901,0.35213 19.95508,0.9082 0.23225,0.23226 0.18112,0.66433 -0.11328,0.95898 -0.58563,0.58611 -28.84839,0.95328 -32.02344,0.41602 -3.93891,-0.66651 -1.80181,-1.5464 5,-2.05664 1.80496,-0.1354 4.35702,-0.20711 7.18164,-0.22656 z M 578,475.01562 c -5.59287,1.01798 -95.97681,25.84724 -95.88281,26.33985 2.5938,13.58795 3.09984,32.12118 1.20898,44.26172 -0.64075,4.11407 -1.04226,7.5674 -0.89258,7.67578 0.14969,0.10838 4.77149,1.40059 10.27149,2.87109 5.5,1.4705 25.42801,6.8096 44.28515,11.86328 18.85714,5.05368 35.73214,9.50003 37.5,9.88282 1.76786,0.38279 3.59121,0.73133 4.05079,0.77343 0.98237,0.0899 2.50216,-6.20692 4.48437,-18.58007 4.01836,-25.08302 3.81945,-45.44364 -0.68359,-70.27149 -2.0507,-11.3067 -3.143,-15.0346 -4.3418,-14.81641 z m -396.51562,0.75 c -1.58359,0.048 -1.94607,0.82415 -2.4629,2.3711 -1.11544,3.33865 -4.32573,22.5682 -5.23242,31.33789 -1.7777,17.19414 0.0636,43.75634 4.3711,63.03516 0.85582,3.83036 1.58694,6.94763 1.62304,6.92773 0.0361,-0.02 21.92244,-5.91139 48.63672,-13.09375 26.71429,-7.18235 48.51441,-13.36319 48.44531,-13.73437 -2.5927,-13.91841 -3.10933,-32.26688 -1.24023,-44.02344 0.62352,-3.92162 0.86399,-7.3865 0.53516,-7.69922 -0.52879,-0.50288 -66.25408,-18.4058 -84.88282,-23.1211 -5.40345,-1.36771 -8.20938,-2.04794 -9.79296,-2 z m 27.17187,30.13672 c 1.99019,0 5.52592,7.38177 6.60352,13.78321 l 0.8164,4.85351 4.38672,-0.21094 4.38477,-0.21093 0.94922,-3.21485 c 0.52226,-1.76786 1.46491,-4.94607 2.09374,-7.0625 1.1311,-3.80688 3.89869,-7.9375 5.31836,-7.9375 0.94566,0 0.42482,2.1616 -1.80859,7.5 -0.98615,2.35714 -2.01612,5.81362 -2.28906,7.67969 l -0.4961,3.39258 h 2.87891 c 3.50157,0 5.13867,0.56542 5.13867,1.77734 0,1.06438 -2.21972,1.76941 -5.61719,1.78321 l -2.40429,0.01 0.50586,4.10742 c 0.27775,2.25893 1.48664,6.60447 2.6875,9.65625 1.20085,3.05178 1.97507,5.75931 1.71875,6.01563 -0.66901,0.66901 -3.78264,-2.43761 -4.67969,-4.66992 -0.41855,-1.04155 -1.39407,-4.58421 -2.16797,-7.87305 -0.7739,-3.28883 -1.58814,-6.16236 -1.81055,-6.38477 -0.2224,-0.22241 -2.27972,-0.5412 -4.57226,-0.70703 l -4.16797,-0.30078 -0.48633,3.82813 c -0.63983,5.04709 -3.02293,12.22387 -4.8164,14.5039 -1.26427,1.60726 -3.47461,2.51532 -3.47461,1.42774 0,-0.21797 0.9467,-2.61941 2.10351,-5.33789 1.73717,-4.08229 3.61133,-11.18198 3.61133,-13.68164 0,-0.32071 -1.91018,-0.58399 -4.24414,-0.58399 -3.70655,0 -5.88014,-0.82689 -4.85742,-1.84961 0.18012,-0.18012 2.32423,-0.67967 4.76367,-1.10937 l 4.43359,-0.78125 -0.47656,-2.95117 c -0.39587,-2.44766 -1.65841,-6.03747 -5.12305,-14.5586 -0.22017,-0.54151 0.21204,-0.89258 1.09766,-0.89258 z m 328.9668,0.36719 c 6.54506,-0.064 8.00637,0.77964 9.63672,4.24805 1.24719,2.6533 1.86171,3.16 4.70898,3.87695 2.45634,0.61851 3.62943,1.40124 4.69141,3.13086 1.9248,3.13487 1.37525,5.2448 -3.375,12.95117 -2.15587,3.49748 -4.09253,7.42892 -4.30469,8.73633 -0.51957,3.20171 1.30151,5.97666 3.91992,5.97266 2.72945,-0.004 6.46593,-2.46593 7.00586,-4.61719 0.49578,-1.97533 2.24678,-2.43371 2.89063,-0.75586 0.56769,1.47941 -2.08627,5.49282 -4.61719,6.98242 -1.1848,0.69732 -3.56347,1.25 -5.38086,1.25 -2.63428,0 -3.74852,-0.42851 -5.81641,-2.24414 l -2.55664,-2.24609 -1.9707,1.88867 c -2.10889,2.02045 -3.68712,2.44958 -3.66602,0.99609 0.007,-0.49108 1.00852,-2.66155 2.22461,-4.82226 1.98231,-3.52212 2.28782,-4.89402 2.96094,-13.26172 0.47586,-5.91577 0.51179,-11.01708 0.0977,-13.92969 -0.57764,-4.06256 -0.84812,-4.62265 -2.3418,-4.83398 -0.92924,-0.13148 -2.02527,0.0975 -2.43555,0.50781 -0.41028,0.41028 -1.00951,6.14208 -1.33008,12.73828 -0.71315,14.67413 -1.14853,18.06445 -2.31836,18.06445 -0.67315,0 -1.06994,-3.87049 -1.58203,-15.42773 -0.6036,-13.62244 -0.83607,-15.53925 -1.98437,-16.37891 -1.694,-1.23868 -3.22955,-0.60026 -4.1543,1.72657 -0.40808,1.02677 -0.88283,7.33119 -1.05469,14.00976 -0.33086,12.8574 -0.62628,15.64164 -1.59179,15.04492 -0.32873,-0.20316 -0.82674,-6.40389 -1.10742,-13.77929 -0.38236,-10.04672 -0.78042,-13.82957 -1.5879,-15.08789 l -1.07812,-1.67969 -1.93945,1.85742 c -1.06671,1.02196 -2.16241,1.85742 -2.43555,1.85742 -0.99737,0 -0.46152,-2.74319 0.85352,-4.36719 1.4545,-1.79625 1.44971,-1.79398 16.50585,-2.33007 1.15779,-0.0412 2.19781,-0.069 3.13282,-0.0781 z m 14.05859,11.87305 c -1.14823,-0.0194 -1.72867,0.46142 -2.46875,1.89258 -1.08555,2.09921 -0.87313,4.69206 0.53125,6.47851 1.26898,1.61422 4.88778,-2.97473 4.60938,-5.8457 -0.18036,-1.85996 -0.56259,-2.30391 -2.14258,-2.48633 -0.18935,-0.0219 -0.36527,-0.0363 -0.5293,-0.0391 z m -274.64258,37.75976 c -1.926,0 -95.15853,25.22885 -95.87304,25.94336 -0.55186,0.55186 3.02763,11.87593 6.69921,21.19922 8.99379,22.83805 23.22966,45.72009 38.80665,62.36914 l 5.82617,6.22656 16.89062,-16.39257 c 9.28882,-9.0163 25.36482,-24.89473 35.72656,-35.28516 l 18.83985,-18.89258 -4.10352,-4.83789 c -8.47147,-9.9861 -16.67214,-24.30924 -20.33008,-35.50781 -0.86619,-2.65179 -1.98424,-4.82227 -2.48242,-4.82227 z m 204.95703,0 c -0.45415,0 -2.03579,3.29548 -3.51367,7.32227 -4.44269,12.10501 -9.88309,21.39563 -18.85742,32.20508 l -4.64648,5.59765 35.56836,35.57422 35.56835,35.57422 4.36524,-4.66016 c 18.33668,-19.56335 32.54411,-43.08538 43.4707,-71.9746 4.0737,-10.77062 4.50498,-12.70803 3.0918,-13.88086 -0.97052,-0.80546 -93.0452,-25.75782 -95.04688,-25.75782 z m 32.45118,25.20899 c 0.87945,0.008 1.80551,0.14975 2.8125,0.41601 1.81646,0.48031 4.10575,1.66945 5.08789,2.64063 1.68848,1.66968 1.78356,2.18129 1.75586,9.42773 -0.0161,4.21494 -0.30201,11.38243 -0.63672,15.92578 l -0.60938,8.25977 2.00391,1.57617 c 3.21814,2.53139 5.03427,2.65499 8.20508,0.55664 3.4347,-2.27324 3.72745,-2.29828 3.4375,-0.28125 -0.1391,0.96766 -1.34279,2.23425 -3.08399,3.24024 -4.59323,2.65378 -9.58731,1.21295 -12.53125,-3.61524 -1.74387,-2.86005 -1.74083,-4.88349 0.0273,-17.4375 1.19409,-8.47797 1.28021,-10.55279 0.53515,-12.81836 -2.31809,-7.04873 -13.84637,-5.65346 -13.65429,1.65235 0.0398,1.51208 1.43143,6.92415 3.09179,12.02734 2.15026,6.60889 2.90573,9.97708 2.625,11.70703 -0.56107,3.45748 -3.47722,7.52078 -6.38867,8.90235 -1.37121,0.65068 -4.11992,1.18359 -6.10938,1.18359 -3.00218,0 -4.03471,-0.36631 -6.06445,-2.14844 -8.95634,-7.86378 -4.30276,-20.70898 7.50195,-20.70898 2.29905,0 4.17588,-0.24051 4.17188,-0.53516 -0.004,-0.29464 -0.48528,-2.11446 -1.07031,-4.04297 -0.58504,-1.92851 -1.06446,-4.89166 -1.06446,-6.58398 0,-2.53786 0.41908,-3.49525 2.39258,-5.46875 2.7083,-2.7083 4.9261,-3.89849 7.56446,-3.875 z m -259.19532,8.36328 c 4.55058,0 9.95313,5.32368 9.95313,9.80859 0,3.30868 -1.61119,2.95235 -2.87891,-0.63672 -2.51943,-7.13284 -11.12602,-8.00071 -13.6582,-1.37695 -0.36248,0.9482 -1.78445,8.66221 -3.16016,17.14258 -2.39246,14.74794 -3.59043,18.68262 -4.99609,16.4082 -0.31741,-0.51357 -1.58569,-7.85728 -2.81836,-16.32031 -1.23267,-8.46302 -2.69889,-16.33483 -3.25781,-17.49219 -1.35489,-2.80562 -5.11541,-4.96721 -7.56836,-4.35156 -2.52191,0.63296 -5.94727,4.41066 -5.94727,6.55859 0,1.62248 -1.71901,3.06419 -2.60156,2.18164 -0.21849,-0.21849 -0.16959,-1.74922 0.10937,-3.40039 1.11657,-6.60889 7.65481,-10.20526 13.50391,-7.42968 4.70449,2.23243 6.14682,5.0118 7.78516,15.00586 0.80486,4.90972 1.68922,8.68037 1.96484,8.3789 0.27562,-0.30148 1.03617,-3.60184 1.69141,-7.33398 1.53158,-8.72354 2.37296,-11.39364 4.24218,-13.48438 1.71119,-1.91398 5.35125,-3.6582 7.63672,-3.6582 z m 198.32032,12.89258 -4.00586,3.46289 c -10.1218,8.75112 -23.12026,16.33005 -36.24219,21.1289 l -5.0957,1.86329 0.6621,2.94531 c 0.76205,3.39165 22.30607,84.20162 23.81446,89.32617 0.55111,1.87233 1.18393,3.69962 1.4082,4.0625 0.49242,0.79675 4.76402,-0.41377 16.80664,-4.76367 19.99198,-7.22128 41.26759,-19.23197 57.84766,-32.6582 6.80315,-5.50908 15.00976,-13.22772 15.00976,-14.11719 0,-0.37603 -15.79717,-16.56107 -35.10351,-35.9668 z m -148.14258,0.0898 -27.08008,27.25977 c -14.89428,14.99212 -30.76383,31.02611 -35.26367,35.63281 l -8.18164,8.37695 2.11523,2.25977 c 4.19668,4.48725 20.13874,17.32016 27.82813,22.40039 15.69654,10.37041 31.64323,18.2016 50,24.55469 8.31967,2.87939 9.45523,2.87156 10.68164,-0.0742 1.00003,-2.40201 11.66062,-41.71511 20.28906,-74.82227 3.72059,-14.27581 4.7153,-19.05333 4.04687,-19.4414 -0.48745,-0.28301 -3.26211,-1.36875 -6.16601,-2.41211 -11.30093,-4.06039 -24.07589,-11.51738 -33.23047,-19.39649 z m 196.20312,2.0957 c -2.05701,0 -4.11266,1.0365 -6.18359,3.10743 -1.49687,1.49687 -2.38672,3.08637 -2.38672,4.26562 0,3.13557 1.92348,6.72091 4.42188,8.24414 5.98372,3.64818 12.71175,-0.25339 12.71874,-7.375 0.002,-2.16755 -0.50375,-3.25375 -2.38476,-5.13476 -2.07093,-2.07093 -4.12853,-3.10743 -6.18555,-3.10743 z m -148.33203,25.18165 c -0.0648,0.0529 -3.38334,12.15066 -7.375,26.88281 -10.01885,36.97685 -18.0036,68.60459 -17.5918,69.67773 0.6136,1.59899 23.79739,5.75506 37.22852,6.67383 12.32246,0.84297 13.87934,0.84567 25.35156,0.0625 15.56574,-1.06263 39.09031,-5.06023 39.74024,-6.75391 0.41098,-1.071 -6.99966,-30.5313 -16.88672,-67.1289 -4.34668,-16.0895 -7.97159,-29.31026 -8.05469,-29.38086 -0.0831,-0.0705 -2.88337,0.35705 -6.22266,0.95117 -8.26002,1.46961 -31.73998,1.46961 -40,0 -3.33928,-0.59412 -6.12465,-1.03727 -6.18945,-0.98437 z m 103.03906,14.5664 c 7.20259,0.17541 14.22217,2.6672 16.7461,6.80664 2.02044,3.31366 1.7493,3.71539 -1.27344,1.89258 -7.9515,-4.79502 -8.54322,-5.00982 -14.94727,-5.43359 l -6.30273,-0.41602 2.60156,2.76953 c 2.6921,2.86452 5.07297,7.07753 5.86719,10.38672 0.60658,2.5274 -2.34579,7.05567 -5.85547,8.98438 -7.56069,4.15492 -15.67979,0.95298 -18.10742,-7.14063 -1.55736,-5.19218 2.65837,-12.43264 9.03906,-15.52148 3.52292,-1.70542 7.91087,-2.43337 12.23242,-2.32813 z M 284.5,644.54102 c 0.20945,-0.0269 0.36959,0.0702 0.45898,0.29101 4.02401,9.94004 10.98056,13.98958 17.93555,10.44141 3.09186,-1.57735 5.991,-4.82703 7.24414,-8.12305 0.95295,-2.50649 2.20899,-2.5325 2.20899,-0.0449 0,2.71363 -2.67579,7.90741 -4.93555,9.57812 l -1.91211,1.41407 2.97461,3.10546 c 5.56364,5.80654 5.80912,14.20357 0.5918,20.29883 -1.35045,1.5777 -3.49516,3.18426 -4.76563,3.57032 -6.5786,1.99905 -12.34181,1.358 -15.64062,-1.74024 -2.47649,-2.32592 -5.5812,-8.35619 -5.5918,-10.86328 -0.0155,-3.67216 1.70994,-8.13381 4.25,-10.99609 l 2.6543,-2.99219 -2.75196,-3.60938 c -3.36026,-4.40849 -4.83484,-8.60344 -3.47461,-9.88476 0.28548,-0.26892 0.54446,-0.41843 0.75391,-0.44531 z m 161.74414,7.07617 c -5.04969,0 -8.18164,3.19304 -8.18164,8.34179 0,2.0744 0.59824,3.1588 3.15039,5.71094 3.33424,3.33424 4.37817,3.49726 8.96484,1.39649 2.22585,-1.01948 5.02735,-5.13057 5.02735,-7.37696 0,-4.46694 -4.0025,-8.07226 -8.96094,-8.07226 z m -148.03906,8.69922 c -2.73149,-7e-5 -5.54616,0.95334 -7.96289,3.13671 -6.37818,5.7623 -4.92658,14.87911 2.99219,18.79883 1.67347,0.82835 3.93632,1.50751 5.02929,1.50782 4.93661,10e-4 9.81656,-4.04575 11.23633,-9.31836 2.12491,-7.89105 -4.31446,-14.12482 -11.29492,-14.125 z m 169.75,0.67578 c 0.6277,-0.0141 1.28264,0.002 1.96289,0.0449 3.56566,0.22705 4.93068,0.66016 6.42773,2.04101 3.82707,3.53008 4.97691,9.89406 2.66797,14.75977 -1.55522,3.27739 -6.72976,6.97839 -11.71289,8.37695 -6.4789,1.81838 -13.47724,1.19896 -19.1543,-1.69726 -3.64135,-1.85768 -7.22656,-4.92271 -7.22656,-6.17774 0,-1.48644 2.43985,-1.22438 3.92969,0.42188 3.02966,3.34772 12.95644,6.46917 17.19141,5.40625 l 1.85546,-0.46485 -1.93554,-1.52343 c -4.28358,-3.36946 -6.00946,-12.19185 -3.26563,-16.69141 1.76345,-2.89186 4.86584,-4.39716 9.25977,-4.49609 z m -104.51563,1.44922 c 0.62624,-0.11548 1.57798,0.61534 3.34961,2.33593 6.06492,5.89017 17.32156,6.10871 24.9668,0.48633 1.65909,-1.22011 3.43537,-2.21875 3.94726,-2.21875 2.03372,0 0.70957,2.16303 -3.6875,6.02344 -3.32594,2.92002 -4.73584,4.69342 -5.03906,6.33789 -0.23155,1.25572 -0.13983,6.71717 0.20313,12.13672 l 0.62304,9.85351 3.71094,3.24414 c 6.73784,5.8941 6.83261,8.42837 0.14844,3.96485 -5.44782,-3.63796 -10.66338,-4.85906 -15.92578,-3.73047 -3.83086,0.82157 -8.87647,3.38988 -10.49805,5.34375 -0.50785,0.61193 -1.15041,1.11328 -1.42969,1.11328 -2.39744,0 -0.36106,-4.12271 3.20313,-6.48437 l 2.61133,-1.73047 -0.31055,-14.06836 -0.3125,-14.06836 -3.45117,-3.125 c -2.44681,-2.21524 -3.31844,-3.47405 -2.99219,-4.32422 0.24808,-0.64648 0.50707,-1.02056 0.88281,-1.08984 z m 105.63086,1.31836 c -3.34724,0 -6.13792,1.79662 -7.80859,5.02734 -2.15289,4.16325 -0.48952,8.32388 4.27734,10.69922 3.72627,1.85681 6.47927,1.32313 9.48828,-1.83789 2.63132,-2.76426 3.06593,-6.09166 1.25391,-9.59571 -1.5181,-2.9357 -3.79961,-4.29296 -7.21094,-4.29296 z m -96.00781,8.57226 v 12.5 12.5 h 5.71484 5.71289 v -12.05078 -12.04883 l -2.67773,-0.44336 c -1.47321,-0.24351 -4.04519,-0.44522 -5.71484,-0.44922 z"
         transform="scale(0.26458333)" />
      <path
         d="m 379.71094,321.20312 c -11.20448,-0.007 -22.30411,0.43946 -28.07813,1.34376 -12.82901,2.00919 -21.58348,3.92087 -22.58984,4.93164 -1.27441,1.27999 -0.38342,5.06526 12.88672,54.74804 6.12306,22.92442 11.13281,41.83434 11.13281,42.02149 0,0.18714 0.88448,0.16397 1.96484,-0.0508 9.46792,-1.88201 12.68321,-2.17031 24.10547,-2.15821 9.02754,0.01 14.85594,0.37991 19.56641,1.24219 3.68979,0.67543 6.84216,1.09533 7.0039,0.93359 0.82267,-0.82268 25.91336,-96.46754 25.42774,-96.92968 -0.8083,-0.76922 -12.63619,-3.2176 -22.71094,-4.70118 -6.19378,-0.91206 -17.5045,-1.37357 -28.70898,-1.38086 z m 55.58008,7.68165 c -1.14261,0.003 -1.4898,0.52092 -1.70118,1.48242 -0.19432,0.88393 -3.57978,13.33844 -7.52343,27.67773 -5.91179,21.49557 -15.94148,59.08992 -17.47657,65.50586 -0.32199,1.34577 0.10733,1.75393 2.93946,2.79102 7.69031,2.81608 13.73076,5.57852 20.25195,9.26172 7.1201,4.02145 17.01222,11.02752 19.42773,13.75976 0.74839,0.84652 1.51904,1.53906 1.7129,1.53906 1.46123,0 70.14062,-69.52848 70.14062,-71.00781 0,-2.33895 -20.95883,-19.51523 -32.66211,-26.76758 -13.63226,-8.4477 -31.33659,-16.86314 -45.36133,-21.56054 -5.49533,-1.84059 -8.27898,-2.68578 -9.74804,-2.68164 z m -111.60547,0.002 c -1.47623,-0.002 -4.27939,0.84955 -9.82422,2.70312 -15.38479,5.14295 -35.90506,15.21644 -49.25,24.17969 -7.15458,4.80545 -22.9421,17.43906 -26.88086,21.50977 l -2.83203,2.92578 35.32226,35.34961 c 19.4271,19.4418 35.42992,35.34765 35.5625,35.34765 0.13258,0 2.38698,-1.82303 5.00977,-4.05273 9.35665,-7.95435 21.42198,-14.90826 33.33984,-19.21289 5.19776,-1.87738 6.3892,-2.57285 6.2168,-3.63477 -0.42339,-2.60792 -9.68067,-37.60941 -17.06641,-64.52734 -4.14999,-15.125 -7.70246,-28.22349 -7.89453,-29.10742 -0.20912,-0.96239 -0.55494,-1.4791 -1.70312,-1.48047 z m 67.66797,19.21289 c 2.07277,-0.0683 3.18376,0.15628 3.5,0.66797 0.76637,1.24002 3.53078,23.47898 2.98632,24.02344 -1.11828,1.11828 -2.04809,-1.28595 -3.38476,-8.74414 -1.83085,-10.21557 -1.77029,-10.09139 -3.76563,-7.66407 -4.07938,4.96253 -16.29205,22.44506 -16.07812,23.01563 0.1305,0.34806 2.08482,2.13196 4.34375,3.96484 2.25893,1.83288 4.10742,3.67013 4.10742,4.08399 0,1.24772 -3.45209,0.003 -7.39844,-2.66797 l -3.67383,-2.48633 -1.07031,1.60937 c -0.58928,0.8851 -1.98831,2.6612 -3.10937,3.94727 -3.81871,4.38082 -4.59874,2.0735 -1.17774,-3.48633 1.17857,-1.91543 2.14453,-3.75848 2.14453,-4.09766 0,-0.33917 -1.74209,-1.96055 -3.86914,-3.60156 -2.12705,-1.64101 -4.04396,-3.44813 -4.26172,-4.01562 -0.73302,-1.9102 2.65227,-1.1197 6.29297,1.46875 1.93397,1.375 3.78293,2.5 4.10743,2.5 0.72261,0 9.03971,-11.14919 14.11914,-18.92774 2.6975,-4.13125 3.44376,-5.7738 2.69336,-5.92773 -0.57087,-0.1171 -4.13073,0.28441 -7.91016,0.89258 -8.10375,1.30402 -9.74414,1.36423 -9.74414,0.35547 0,-1.24786 4.24614,-2.61432 11.87109,-3.82032 4.16952,-0.65947 7.20457,-1.02155 9.27735,-1.08984 z m -107.29688,20.05273 c 0.46151,0.007 1.11802,0.10355 2.04102,0.27735 4.03544,0.75987 12.92478,0.77164 17.14257,0.0234 4.19108,-0.74347 4.62819,0.5673 0.97657,2.93165 -3.01628,1.95298 -7.21454,7.03306 -8.64844,10.46484 -0.60256,1.44214 -1.29469,5.11277 -1.53906,8.1582 l -0.44532,5.53711 2.16016,-2.02148 c 1.1876,-1.11184 3.39754,-2.30099 4.91211,-2.64258 3.28119,-0.74003 8.577,0.28157 10.50391,2.02539 5.00018,4.5251 4.18224,13.93839 -1.45899,16.79492 -2.38682,1.20861 -6.31788,1.83662 -8.78125,1.40235 -0.98214,-0.17315 -3.13398,-1.62481 -4.78125,-3.22461 -2.984,-2.89803 -3.00271,-2.90424 -4.89844,-1.66211 -2.465,1.61513 -3.53365,0.63379 -2.35351,-2.16211 0.48302,-1.14433 1.0662,-6.09906 1.29492,-11.00977 0.39224,-8.42146 0.5617,-9.22107 2.99024,-14.08594 2.81886,-5.64679 2.93566,-5.32469 -2.25196,-6.25586 -3.86612,-0.69395 -7.85742,-2.61863 -7.85742,-3.78906 0,-0.53562 0.22495,-0.77264 0.99414,-0.76172 z m 164.82227,0.90821 c 0.92183,-0.0566 1.82222,0.18718 3.19726,0.76172 2.18293,0.91208 3.06435,0.97449 4.3086,0.30859 1.91306,-1.02384 5.71509,-0.37558 7.96679,1.35742 1.58295,1.2183 1.67388,1.84 2.30274,15.87695 0.35998,8.03514 0.66313,15.5948 0.67382,16.79883 0.0159,1.79514 0.47607,2.40516 2.55079,3.39453 2.27628,1.08548 2.73561,1.10057 4.5957,0.13868 3.01397,-1.55858 3.30784,-2.50782 0.77344,-2.50782 -1.44272,0 -2.18555,-0.35602 -2.18555,-1.04687 0,-1.39213 1.78921,-2.27719 5.82812,-2.88281 2.92813,-0.43906 3.42707,-0.31897 4.13086,0.99609 0.44014,0.82241 0.87124,3.14877 0.95704,5.17187 0.17507,4.12671 -1.15826,5.52353 -2.33008,2.44141 l -0.70899,-1.86328 -2.83789,1.44922 c -4.40544,2.24749 -8.53029,1.94032 -11.71875,-0.87305 l -2.63086,-2.32226 -0.65234,-15.35743 c -0.35898,-8.44643 -0.86111,-15.89366 -1.11523,-16.55078 -0.90627,-2.34341 -4.08,-2.34341 -4.99024,0 -0.25524,0.65712 -0.7087,7.54169 -1.00781,15.30078 -0.29911,7.7591 -0.75779,14.32224 -1.01953,14.58399 -1.19118,1.19118 -1.5435,-1.49939 -1.91211,-14.62695 -0.43687,-15.55817 -0.91001,-17.51693 -4.14453,-17.14258 -2.49847,0.28915 -2.79903,1.79894 -2.90625,14.58593 -0.0905,10.79083 -0.64407,16.70704 -1.5625,16.70704 -1.09729,0 -1.48418,-2.97696 -2.03125,-15.60743 -0.30342,-7.0052 -0.7831,-13.10919 -1.06446,-13.56445 -0.70888,-1.14699 -2.22231,-1.03416 -3.2832,0.24414 -1.23803,1.49173 -2.85742,1.33906 -2.85742,-0.26953 0,-1.96519 1.52083,-2.91699 5.81836,-3.63867 2.10373,-0.35327 4.83288,-1.0034 6.0664,-1.44531 0.67444,-0.24161 1.23597,-0.38401 1.78907,-0.41797 z m -216.41797,13.03125 -3.71875,4.07031 c -9.60043,10.50439 -17.71782,21.21632 -24.43946,32.25391 -10.78092,17.70333 -25.24071,51.67794 -22.94335,53.90625 0.3477,0.33725 20.56081,5.96414 44.91796,12.5039 24.35714,6.53977 45.73214,12.29459 47.5,12.78711 l 3.21289,0.89453 1.22852,-2.55273 c 0.67492,-1.40397 2.2173,-5.12278 3.42969,-8.26563 3.95559,-10.25403 12.88269,-24.56825 20.05664,-32.16211 l 2.04101,-2.16015 -35.64257,-35.63672 z m 293.8164,0.19336 -35.68164,35.23046 -35.67968,35.23243 4.16015,4.90234 c 8.52619,10.0506 16.71739,24.34675 20.38477,35.57422 1.01019,3.09264 1.95744,4.82031 2.64062,4.82031 1.52753,0 84.61321,-22.21146 92.56641,-24.74609 3.9915,-1.27206 4.00684,-0.49756 -0.26367,-13.28906 -8.67288,-25.97792 -25.48111,-54.15701 -43.47266,-72.88086 z m -222.19922,11.47461 c -2.20176,0 -3.16226,0.52199 -5.51953,3 -1.58371,1.66482 -2.48911,3.12146 -2.0332,3.27343 0.45184,0.15061 0.82227,1.15228 0.82227,2.22461 0,1.92046 2.70357,5.16481 5,6 0.58929,0.2143 1.50023,0.25319 2.02343,0.0879 0.5232,-0.1653 1.22215,-0.30078 1.55274,-0.30078 0.33058,0 1.58816,-0.83059 2.79687,-1.84765 1.85289,-1.5591 2.19922,-2.35383 2.19922,-5.05665 0,-4.28012 -2.8749,-7.38085 -6.8418,-7.38085 z m 215.73829,32.08398 c 5.64815,-0.0523 11.16042,3.05879 13.66211,8.99805 2.0431,4.85054 1.50487,10.03849 -1.6875,16.24023 -0.15167,0.29465 0.52701,0.53516 1.50976,0.53516 2.47037,0 4.04688,0.69498 4.04688,1.78515 0,1.31681 -1.67937,1.78711 -6.39844,1.78711 -5.93347,0 -6.419,-0.98156 -2.84961,-5.76562 3.34068,-4.47744 3.84099,-6.01884 3.35351,-10.34375 -1.27971,-11.35368 -16.76768,-14.07345 -21.97851,-3.85938 -2.76971,5.42909 -0.93765,12.52194 4.15625,16.08985 1.84471,1.29208 2.04237,2.83171 0.44336,3.44531 -0.62142,0.23847 -3.04157,0.43359 -5.37891,0.43359 -3.05632,0 -4.36024,-0.29311 -4.64648,-1.03906 -0.62148,-1.61953 0.3339,-2.5332 2.64844,-2.5332 h 2.12109 l -1.62695,-2.20313 c -1.40571,-1.90132 -1.62891,-3.0638 -1.62891,-8.5039 0,-5.95465 0.11986,-6.45543 2.18359,-9.04883 3.20173,-4.02348 7.67731,-5.97691 12.07032,-6.01758 z m -287.00196,7.20117 c 2.55805,0 3.74806,0.95971 9.5293,7.67969 2.64381,3.0731 5.82204,1.75426 8.46289,-3.51172 2.21549,-4.41779 7.67985,-5.52131 11.48633,-2.31836 1.33507,1.12339 2.19726,2.52602 2.19726,3.57227 0,2.23206 -1.21005,2.19135 -3.01367,-0.10157 -1.14904,-1.46077 -1.95162,-1.78105 -4.02734,-1.60742 -2.22324,0.18598 -2.91955,0.71973 -4.90039,3.75391 -1.27006,1.94543 -3.04027,3.94345 -3.9336,4.43945 -0.89332,0.496 -2.70149,0.91188 -4.01757,0.92578 -2.45586,0.026 -4.56138,-1.70675 -8.55469,-7.04101 -2.12035,-2.83235 -5.15988,-3.01041 -7.40039,-0.4336 -1.84348,2.12019 -3.4375,2.32064 -3.4375,0.43164 0,-2.24744 4.65504,-5.78906 7.60937,-5.78906 z m -0.19726,17.85742 c 2.14635,0 2.98706,0.5581 5.85742,3.88282 4.17662,4.83776 6.86925,6.14571 8.89062,4.3164 0.77569,-0.70199 1.41211,-1.68533 1.41211,-2.18359 0,-0.49826 0.8223,-1.88278 1.82813,-3.07813 3.12869,-3.71824 8.86263,-3.86277 12.16015,-0.30468 1.62832,1.757 2.35778,4.5191 1.18946,4.5039 -0.29465,-0.004 -1.92507,-1.11108 -3.62305,-2.46094 -2.73507,-2.17433 -3.2924,-2.36224 -4.88476,-1.63671 -1.02242,0.46585 -2.26798,1.9956 -2.88868,3.54687 -0.60013,1.49989 -1.9011,3.36422 -2.89062,4.14258 -2.49179,1.96006 -7.90582,1.92502 -10.4375,-0.0664 -1.03513,-0.81422 -1.88281,-1.89454 -1.88281,-2.40234 0,-1.2107 -2.61337,-4.50777 -4.28125,-5.40039 -1.04277,-0.55808 -1.92993,-0.18815 -4.29883,1.79101 -3.34516,2.7948 -4.28492,3.06789 -4.26172,1.24219 0.0379,-2.98427 4.04204,-5.89258 8.11133,-5.89258 z m 284.59179,13.66993 c 8.47387,-0.0584 19.39901,0.35213 19.95508,0.9082 0.23225,0.23226 0.18112,0.66433 -0.11328,0.95898 -0.58563,0.58611 -28.84839,0.95328 -32.02344,0.41602 -3.93891,-0.66651 -1.80181,-1.5464 5,-2.05664 1.80496,-0.1354 4.35702,-0.20711 7.18164,-0.22656 z M 578,475.01562 c -5.59287,1.01798 -95.97681,25.84724 -95.88281,26.33985 2.5938,13.58795 3.09984,32.12118 1.20898,44.26172 -0.64075,4.11407 -1.04226,7.5674 -0.89258,7.67578 0.14969,0.10838 4.77149,1.40059 10.27149,2.87109 5.5,1.4705 25.42801,6.8096 44.28515,11.86328 18.85714,5.05368 35.73214,9.50003 37.5,9.88282 1.76786,0.38279 3.59121,0.73133 4.05079,0.77343 0.98237,0.0899 2.50216,-6.20692 4.48437,-18.58007 4.01836,-25.08302 3.81945,-45.44364 -0.68359,-70.27149 -2.0507,-11.3067 -3.143,-15.0346 -4.3418,-14.81641 z m -396.51562,0.75 c -1.58359,0.048 -1.94607,0.82415 -2.4629,2.3711 -1.11544,3.33865 -4.32573,22.5682 -5.23242,31.33789 -1.7777,17.19414 0.0636,43.75634 4.3711,63.03516 0.85582,3.83036 1.58694,6.94763 1.62304,6.92773 0.0361,-0.02 21.92244,-5.91139 48.63672,-13.09375 26.71429,-7.18235 48.51441,-13.36319 48.44531,-13.73437 -2.5927,-13.91841 -3.10933,-32.26688 -1.24023,-44.02344 0.62352,-3.92162 0.86399,-7.3865 0.53516,-7.69922 -0.52879,-0.50288 -66.25408,-18.4058 -84.88282,-23.1211 -5.40345,-1.36771 -8.20938,-2.04794 -9.79296,-2 z m 27.17187,30.13672 c 1.99019,0 5.52592,7.38177 6.60352,13.78321 l 0.8164,4.85351 4.38672,-0.21094 4.38477,-0.21093 0.94922,-3.21485 c 0.52226,-1.76786 1.46491,-4.94607 2.09374,-7.0625 1.1311,-3.80688 3.89869,-7.9375 5.31836,-7.9375 0.94566,0 0.42482,2.1616 -1.80859,7.5 -0.98615,2.35714 -2.01612,5.81362 -2.28906,7.67969 l -0.4961,3.39258 h 2.87891 c 3.50157,0 5.13867,0.56542 5.13867,1.77734 0,1.06438 -2.21972,1.76941 -5.61719,1.78321 l -2.40429,0.01 0.50586,4.10742 c 0.27775,2.25893 1.48664,6.60447 2.6875,9.65625 1.20085,3.05178 1.97507,5.75931 1.71875,6.01563 -0.66901,0.66901 -3.78264,-2.43761 -4.67969,-4.66992 -0.41855,-1.04155 -1.39407,-4.58421 -2.16797,-7.87305 -0.7739,-3.28883 -1.58814,-6.16236 -1.81055,-6.38477 -0.2224,-0.22241 -2.27972,-0.5412 -4.57226,-0.70703 l -4.16797,-0.30078 -0.48633,3.82813 c -0.63983,5.04709 -3.02293,12.22387 -4.8164,14.5039 -1.26427,1.60726 -3.47461,2.51532 -3.47461,1.42774 0,-0.21797 0.9467,-2.61941 2.10351,-5.33789 1.73717,-4.08229 3.61133,-11.18198 3.61133,-13.68164 0,-0.32071 -1.91018,-0.58399 -4.24414,-0.58399 -3.70655,0 -5.88014,-0.82689 -4.85742,-1.84961 0.18012,-0.18012 2.32423,-0.67967 4.76367,-1.10937 l 4.43359,-0.78125 -0.47656,-2.95117 c -0.39587,-2.44766 -1.65841,-6.03747 -5.12305,-14.5586 -0.22017,-0.54151 0.21204,-0.89258 1.09766,-0.89258 z m 328.9668,0.36719 c 6.54506,-0.064 8.00637,0.77964 9.63672,4.24805 1.24719,2.6533 1.86171,3.16 4.70898,3.87695 2.45634,0.61851 3.62943,1.40124 4.69141,3.13086 1.9248,3.13487 1.37525,5.2448 -3.375,12.95117 -2.15587,3.49748 -4.09253,7.42892 -4.30469,8.73633 -0.51957,3.20171 1.30151,5.97666 3.91992,5.97266 2.72945,-0.004 6.46593,-2.46593 7.00586,-4.61719 0.49578,-1.97533 2.24678,-2.43371 2.89063,-0.75586 0.56769,1.47941 -2.08627,5.49282 -4.61719,6.98242 -1.1848,0.69732 -3.56347,1.25 -5.38086,1.25 -2.63428,0 -3.74852,-0.42851 -5.81641,-2.24414 l -2.55664,-2.24609 -1.9707,1.88867 c -2.10889,2.02045 -3.68712,2.44958 -3.66602,0.99609 0.007,-0.49108 1.00852,-2.66155 2.22461,-4.82226 1.98231,-3.52212 2.28782,-4.89402 2.96094,-13.26172 0.47586,-5.91577 0.51179,-11.01708 0.0977,-13.92969 -0.57764,-4.06256 -0.84812,-4.62265 -2.3418,-4.83398 -0.92924,-0.13148 -2.02527,0.0975 -2.43555,0.50781 -0.41028,0.41028 -1.00951,6.14208 -1.33008,12.73828 -0.71315,14.67413 -1.14853,18.06445 -2.31836,18.06445 -0.67315,0 -1.06994,-3.87049 -1.58203,-15.42773 -0.6036,-13.62244 -0.83607,-15.53925 -1.98437,-16.37891 -1.694,-1.23868 -3.22955,-0.60026 -4.1543,1.72657 -0.40808,1.02677 -0.88283,7.33119 -1.05469,14.00976 -0.33086,12.8574 -0.62628,15.64164 -1.59179,15.04492 -0.32873,-0.20316 -0.82674,-6.40389 -1.10742,-13.77929 -0.38236,-10.04672 -0.78042,-13.82957 -1.5879,-15.08789 l -1.07812,-1.67969 -1.93945,1.85742 c -1.06671,1.02196 -2.16241,1.85742 -2.43555,1.85742 -0.99737,0 -0.46152,-2.74319 0.85352,-4.36719 1.4545,-1.79625 1.44971,-1.79398 16.50585,-2.33007 1.15779,-0.0412 2.19781,-0.069 3.13282,-0.0781 z m 14.05859,11.87305 c -1.14823,-0.0194 -1.72867,0.46142 -2.46875,1.89258 -1.08555,2.09921 -0.87313,4.69206 0.53125,6.47851 1.26898,1.61422 4.88778,-2.97473 4.60938,-5.8457 -0.18036,-1.85996 -0.56259,-2.30391 -2.14258,-2.48633 -0.18935,-0.0219 -0.36527,-0.0363 -0.5293,-0.0391 z m -274.64258,37.75976 c -1.926,0 -95.15853,25.22885 -95.87304,25.94336 -0.55186,0.55186 3.02763,11.87593 6.69921,21.19922 8.99379,22.83805 23.22966,45.72009 38.80665,62.36914 l 5.82617,6.22656 16.89062,-16.39257 c 9.28882,-9.0163 25.36482,-24.89473 35.72656,-35.28516 l 18.83985,-18.89258 -4.10352,-4.83789 c -8.47147,-9.9861 -16.67214,-24.30924 -20.33008,-35.50781 -0.86619,-2.65179 -1.98424,-4.82227 -2.48242,-4.82227 z m 204.95703,0 c -0.45415,0 -2.03579,3.29548 -3.51367,7.32227 -4.44269,12.10501 -9.88309,21.39563 -18.85742,32.20508 l -4.64648,5.59765 35.56836,35.57422 35.56835,35.57422 4.36524,-4.66016 c 18.33668,-19.56335 32.54411,-43.08538 43.4707,-71.9746 4.0737,-10.77062 4.50498,-12.70803 3.0918,-13.88086 -0.97052,-0.80546 -93.0452,-25.75782 -95.04688,-25.75782 z m 32.45118,25.20899 c 0.87945,0.008 1.80551,0.14975 2.8125,0.41601 1.81646,0.48031 4.10575,1.66945 5.08789,2.64063 1.68848,1.66968 1.78356,2.18129 1.75586,9.42773 -0.0161,4.21494 -0.30201,11.38243 -0.63672,15.92578 l -0.60938,8.25977 2.00391,1.57617 c 3.21814,2.53139 5.03427,2.65499 8.20508,0.55664 3.4347,-2.27324 3.72745,-2.29828 3.4375,-0.28125 -0.1391,0.96766 -1.34279,2.23425 -3.08399,3.24024 -4.59323,2.65378 -9.58731,1.21295 -12.53125,-3.61524 -1.74387,-2.86005 -1.74083,-4.88349 0.0273,-17.4375 1.19409,-8.47797 1.28021,-10.55279 0.53515,-12.81836 -2.31809,-7.04873 -13.84637,-5.65346 -13.65429,1.65235 0.0398,1.51208 1.43143,6.92415 3.09179,12.02734 2.15026,6.60889 2.90573,9.97708 2.625,11.70703 -0.56107,3.45748 -3.47722,7.52078 -6.38867,8.90235 -1.37121,0.65068 -4.11992,1.18359 -6.10938,1.18359 -3.00218,0 -4.03471,-0.36631 -6.06445,-2.14844 -8.95634,-7.86378 -4.30276,-20.70898 7.50195,-20.70898 2.29905,0 4.17588,-0.24051 4.17188,-0.53516 -0.004,-0.29464 -0.48528,-2.11446 -1.07031,-4.04297 -0.58504,-1.92851 -1.06446,-4.89166 -1.06446,-6.58398 0,-2.53786 0.41908,-3.49525 2.39258,-5.46875 2.7083,-2.7083 4.9261,-3.89849 7.56446,-3.875 z m -259.19532,8.36328 c 4.55058,0 9.95313,5.32368 9.95313,9.80859 0,3.30868 -1.61119,2.95235 -2.87891,-0.63672 -2.51943,-7.13284 -11.12602,-8.00071 -13.6582,-1.37695 -0.36248,0.9482 -1.78445,8.66221 -3.16016,17.14258 -2.39246,14.74794 -3.59043,18.68262 -4.99609,16.4082 -0.31741,-0.51357 -1.58569,-7.85728 -2.81836,-16.32031 -1.23267,-8.46302 -2.69889,-16.33483 -3.25781,-17.49219 -1.35489,-2.80562 -5.11541,-4.96721 -7.56836,-4.35156 -2.52191,0.63296 -5.94727,4.41066 -5.94727,6.55859 0,1.62248 -1.71901,3.06419 -2.60156,2.18164 -0.21849,-0.21849 -0.16959,-1.74922 0.10937,-3.40039 1.11657,-6.60889 7.65481,-10.20526 13.50391,-7.42968 4.70449,2.23243 6.14682,5.0118 7.78516,15.00586 0.80486,4.90972 1.68922,8.68037 1.96484,8.3789 0.27562,-0.30148 1.03617,-3.60184 1.69141,-7.33398 1.53158,-8.72354 2.37296,-11.39364 4.24218,-13.48438 1.71119,-1.91398 5.35125,-3.6582 7.63672,-3.6582 z m 198.32032,12.89258 -4.00586,3.46289 c -10.1218,8.75112 -23.12026,16.33005 -36.24219,21.1289 l -5.0957,1.86329 0.6621,2.94531 c 0.76205,3.39165 22.30607,84.20162 23.81446,89.32617 0.55111,1.87233 1.18393,3.69962 1.4082,4.0625 0.49242,0.79675 4.76402,-0.41377 16.80664,-4.76367 19.99198,-7.22128 41.26759,-19.23197 57.84766,-32.6582 6.80315,-5.50908 15.00976,-13.22772 15.00976,-14.11719 0,-0.37603 -15.79717,-16.56107 -35.10351,-35.9668 z m -148.14258,0.0898 -27.08008,27.25977 c -14.89428,14.99212 -30.76383,31.02611 -35.26367,35.63281 l -8.18164,8.37695 2.11523,2.25977 c 4.19668,4.48725 20.13874,17.32016 27.82813,22.40039 15.69654,10.37041 31.64323,18.2016 50,24.55469 8.31967,2.87939 9.45523,2.87156 10.68164,-0.0742 1.00003,-2.40201 11.66062,-41.71511 20.28906,-74.82227 3.72059,-14.27581 4.7153,-19.05333 4.04687,-19.4414 -0.48745,-0.28301 -3.26211,-1.36875 -6.16601,-2.41211 -11.30093,-4.06039 -24.07589,-11.51738 -33.23047,-19.39649 z m 196.20312,2.0957 c -2.05701,0 -4.11266,1.0365 -6.18359,3.10743 -1.49687,1.49687 -2.38672,3.08637 -2.38672,4.26562 0,3.13557 1.92348,6.72091 4.42188,8.24414 5.98372,3.64818 12.71175,-0.25339 12.71874,-7.375 0.002,-2.16755 -0.50375,-3.25375 -2.38476,-5.13476 -2.07093,-2.07093 -4.12853,-3.10743 -6.18555,-3.10743 z m -148.33203,25.18165 c -0.0648,0.0529 -3.38334,12.15066 -7.375,26.88281 -10.01885,36.97685 -18.0036,68.60459 -17.5918,69.67773 0.6136,1.59899 23.79739,5.75506 37.22852,6.67383 12.32246,0.84297 13.87934,0.84567 25.35156,0.0625 15.56574,-1.06263 39.09031,-5.06023 39.74024,-6.75391 0.41098,-1.071 -6.99966,-30.5313 -16.88672,-67.1289 -4.34668,-16.0895 -7.97159,-29.31026 -8.05469,-29.38086 -0.0831,-0.0705 -2.88337,0.35705 -6.22266,0.95117 -8.26002,1.46961 -31.73998,1.46961 -40,0 -3.33928,-0.59412 -6.12465,-1.03727 -6.18945,-0.98437 z m 103.03906,14.5664 c 7.20259,0.17541 14.22217,2.6672 16.7461,6.80664 2.02044,3.31366 1.7493,3.71539 -1.27344,1.89258 -7.9515,-4.79502 -8.54322,-5.00982 -14.94727,-5.43359 l -6.30273,-0.41602 2.60156,2.76953 c 2.6921,2.86452 5.07297,7.07753 5.86719,10.38672 0.60658,2.5274 -2.34579,7.05567 -5.85547,8.98438 -7.56069,4.15492 -15.67979,0.95298 -18.10742,-7.14063 -1.55736,-5.19218 2.65837,-12.43264 9.03906,-15.52148 3.52292,-1.70542 7.91087,-2.43337 12.23242,-2.32813 z M 284.5,644.54102 c 0.20945,-0.0269 0.36959,0.0702 0.45898,0.29101 4.02401,9.94004 10.98056,13.98958 17.93555,10.44141 3.09186,-1.57735 5.991,-4.82703 7.24414,-8.12305 0.95295,-2.50649 2.20899,-2.5325 2.20899,-0.0449 0,2.71363 -2.67579,7.90741 -4.93555,9.57812 l -1.91211,1.41407 2.97461,3.10546 c 5.56364,5.80654 5.80912,14.20357 0.5918,20.29883 -1.35045,1.5777 -3.49516,3.18426 -4.76563,3.57032 -6.5786,1.99905 -12.34181,1.358 -15.64062,-1.74024 -2.47649,-2.32592 -5.5812,-8.35619 -5.5918,-10.86328 -0.0155,-3.67216 1.70994,-8.13381 4.25,-10.99609 l 2.6543,-2.99219 -2.75196,-3.60938 c -3.36026,-4.40849 -4.83484,-8.60344 -3.47461,-9.88476 0.28548,-0.26892 0.54446,-0.41843 0.75391,-0.44531 z m 161.74414,7.07617 c -5.04969,0 -8.18164,3.19304 -8.18164,8.34179 0,2.0744 0.59824,3.1588 3.15039,5.71094 3.33424,3.33424 4.37817,3.49726 8.96484,1.39649 2.22585,-1.01948 5.02735,-5.13057 5.02735,-7.37696 0,-4.46694 -4.0025,-8.07226 -8.96094,-8.07226 z m -148.03906,8.69922 c -2.73149,-7e-5 -5.54616,0.95334 -7.96289,3.13671 -6.37818,5.7623 -4.92658,14.87911 2.99219,18.79883 1.67347,0.82835 3.93632,1.50751 5.02929,1.50782 4.93661,10e-4 9.81656,-4.04575 11.23633,-9.31836 2.12491,-7.89105 -4.31446,-14.12482 -11.29492,-14.125 z m 169.75,0.67578 c 0.6277,-0.0141 1.28264,0.002 1.96289,0.0449 3.56566,0.22705 4.93068,0.66016 6.42773,2.04101 3.82707,3.53008 4.97691,9.89406 2.66797,14.75977 -1.55522,3.27739 -6.72976,6.97839 -11.71289,8.37695 -6.4789,1.81838 -13.47724,1.19896 -19.1543,-1.69726 -3.64135,-1.85768 -7.22656,-4.92271 -7.22656,-6.17774 0,-1.48644 2.43985,-1.22438 3.92969,0.42188 3.02966,3.34772 12.95644,6.46917 17.19141,5.40625 l 1.85546,-0.46485 -1.93554,-1.52343 c -4.28358,-3.36946 -6.00946,-12.19185 -3.26563,-16.69141 1.76345,-2.89186 4.86584,-4.39716 9.25977,-4.49609 z m -104.51563,1.44922 c 0.62624,-0.11548 1.57798,0.61534 3.34961,2.33593 6.06492,5.89017 17.32156,6.10871 24.9668,0.48633 1.65909,-1.22011 3.43537,-2.21875 3.94726,-2.21875 2.03372,0 0.70957,2.16303 -3.6875,6.02344 -3.32594,2.92002 -4.73584,4.69342 -5.03906,6.33789 -0.23155,1.25572 -0.13983,6.71717 0.20313,12.13672 l 0.62304,9.85351 3.71094,3.24414 c 6.73784,5.8941 6.83261,8.42837 0.14844,3.96485 -5.44782,-3.63796 -10.66338,-4.85906 -15.92578,-3.73047 -3.83086,0.82157 -8.87647,3.38988 -10.49805,5.34375 -0.50785,0.61193 -1.15041,1.11328 -1.42969,1.11328 -2.39744,0 -0.36106,-4.12271 3.20313,-6.48437 l 2.61133,-1.73047 -0.31055,-14.06836 -0.3125,-14.06836 -3.45117,-3.125 c -2.44681,-2.21524 -3.31844,-3.47405 -2.99219,-4.32422 0.24808,-0.64648 0.50707,-1.02056 0.88281,-1.08984 z m 105.63086,1.31836 c -3.34724,0 -6.13792,1.79662 -7.80859,5.02734 -2.15289,4.16325 -0.48952,8.32388 4.27734,10.69922 3.72627,1.85681 6.47927,1.32313 9.48828,-1.83789 2.63132,-2.76426 3.06593,-6.09166 1.25391,-9.59571 -1.5181,-2.9357 -3.79961,-4.29296 -7.21094,-4.29296 z m -96.00781,8.57226 v 12.5 12.5 h 5.71484 5.71289 v -12.05078 -12.04883 l -2.67773,-0.44336 c -1.47321,-0.24351 -4.04519,-0.44522 -5.71484,-0.44922 z"
         style="fill:#800080;stroke:none;stroke-width:0.714331;stroke-miterlimit:4;stroke-dasharray:none"
         id="path917"
         transform="scale(0.26458333)" />
    </g>
    <path
       id="path1493"
       style="opacity:0.619275;fill:url(#linearGradient1503);fill-opacity:1;stroke:none;stroke-width:0.189;stroke-miterlimit:4;stroke-dasharray:none"
       d="M 154.80416,139.37341 A 54.580662,54.580662 0 0 1 100.2235,193.95407 54.580662,54.580662 0 0 1 45.642841,139.37341 54.580662,54.580662 0 0 1 100.2235,84.792751 54.580662,54.580662 0 0 1 154.80416,139.37341 Z" />
    <path
       id="circle1509"
       style="opacity:0.454183;fill:url(#linearGradient1513);fill-opacity:1;stroke:none;stroke-width:0.189;stroke-miterlimit:4;stroke-dasharray:none"
       transform="rotate(-60)"
       d="m -16.008503,156.4828 a 54.580662,54.580662 0 0 1 -54.580662,54.58067 54.580662,54.580662 0 0 1 -54.580665,-54.58067 54.580662,54.580662 0 0 1 54.580665,-54.58066 54.580662,54.580662 0 0 1 54.580662,54.58066" />
    <path
       id="circle1505"
       style="opacity:1;fill:#ffffff;fill-opacity:1;stroke:none;stroke-width:0.0974229;stroke-miterlimit:4;stroke-dasharray:none"
       d="M 128.35794,139.37341 A 28.134439,28.134439 0 0 1 100.2235,167.50785 28.134439,28.134439 0 0 1 72.089064,139.37341 28.134439,28.134439 0 0 1 100.2235,111.23897 28.134439,28.134439 0 0 1 128.35794,139.37341" />
    <g
       aria-label="τ"
       id="text1531"
       style="font-style:normal;font-variant:normal;font-weight:normal;font-stretch:normal;font-size:82.6838px;line-height:1.25;font-family:Akaash;-inkscape-font-specification:Akaash;fill:#000000;fill-opacity:1;stroke-width:2.0671;filter:url(#filter1629)">
      <path
         d="m 103.01662,129.65097 h 13.06404 l 3.47272,-5.95323 c 0.4961,-0.99221 0.74415,-1.48831 0.74415,-1.90173 0,-0.4961 -0.57879,-1.07489 -1.15757,-1.07489 -0.24805,0 -0.57879,0.16537 -1.07489,0.4961 -2.23246,1.57099 -4.46493,1.98441 -10.08743,1.98441 H 94.252134 92.433091 c -5.20908,0 -7.937645,0.99221 -10.087424,3.72077 -1.322941,1.65368 -3.141984,5.45714 -3.141984,6.53203 0,0.57878 0.496102,1.07488 1.157573,1.07488 0.578786,0 1.074889,-0.33073 2.067095,-1.65367 1.653676,-2.0671 3.968822,-3.30735 6.366652,-3.22467 h 6.449337 v 20.67095 c 0,4.13419 0.330735,6.28397 1.074889,8.02033 1.240257,2.72856 3.638087,4.13419 6.945441,4.13419 4.13419,0 9.26058,-3.14199 9.26058,-5.70518 0,-0.49611 -0.41342,-1.07489 -0.74415,-1.07489 -0.33074,0 -0.74415,0.16536 -1.24026,0.41342 -1.15757,0.57878 -2.48051,0.9922 -3.47272,0.9922 -3.22466,0 -4.0515,-1.65367 -4.0515,-8.10301 z"
         style="font-style:normal;font-variant:normal;font-weight:normal;font-stretch:normal;font-size:82.6838px;font-family:C059;-inkscape-font-specification:'C059, Normal';font-variant-ligatures:normal;font-variant-caps:normal;font-variant-numeric:normal;font-variant-east-asian:normal;fill:#000000;fill-opacity:1;stroke-width:2.0671"
         id="path1785" />
    </g>
    <g
       aria-label="τ"
       id="text30"
       style="font-style:normal;font-variant:normal;font-weight:normal;font-stretch:normal;font-size:82.6838px;line-height:1.25;font-family:Akaash;-inkscape-font-specification:Akaash;fill:url(#linearGradient1671);fill-opacity:1;stroke-width:2.0671">
      <path
         d="m 103.01662,129.65097 h 13.06404 l 3.47272,-5.95323 c 0.4961,-0.99221 0.74415,-1.48831 0.74415,-1.90173 0,-0.4961 -0.57879,-1.07489 -1.15757,-1.07489 -0.24805,0 -0.57879,0.16537 -1.07489,0.4961 -2.23246,1.57099 -4.46493,1.98441 -10.08743,1.98441 H 94.252134 92.433091 c -5.20908,0 -7.937645,0.99221 -10.087424,3.72077 -1.322941,1.65368 -3.141984,5.45714 -3.141984,6.53203 0,0.57878 0.496102,1.07488 1.157573,1.07488 0.578786,0 1.074889,-0.33073 2.067095,-1.65367 1.653676,-2.0671 3.968822,-3.30735 6.366652,-3.22467 h 6.449337 v 20.67095 c 0,4.13419 0.330735,6.28397 1.074889,8.02033 1.240257,2.72856 3.638087,4.13419 6.945441,4.13419 4.13419,0 9.26058,-3.14199 9.26058,-5.70518 0,-0.49611 -0.41342,-1.07489 -0.74415,-1.07489 -0.33074,0 -0.74415,0.16536 -1.24026,0.41342 -1.15757,0.57878 -2.48051,0.9922 -3.47272,0.9922 -3.22466,0 -4.0515,-1.65367 -4.0515,-8.10301 z"
         style="font-style:normal;font-variant:normal;font-weight:normal;font-stretch:normal;font-size:82.6838px;font-family:C059;-inkscape-font-specification:'C059, Normal';font-variant-ligatures:normal;font-variant-caps:normal;font-variant-numeric:normal;font-variant-east-asian:normal;fill:url(#linearGradient68);fill-opacity:1;stroke-width:2.0671"
         id="path1782" />
    </g>
    <path
       d="m 98.46875,83.875 c -3.024272,-0.0324 -6.053726,0.20416 -9.001814,0.902022 -12.658808,2.555616 -24.379106,9.628584 -32.401724,19.767378 -6.528159,8.15219 -10.870487,18.12327 -11.935981,28.54306 -1.190583,10.8944 0.672054,22.17901 5.764909,31.92046 5.399051,10.60843 14.319125,19.3678 25.027493,24.56852 5.889914,2.86652 12.267074,4.77623 18.781479,5.49036 4.767393,0.31454 9.572788,0.20079 14.317368,-0.3612 12.67174,-2.04629 24.66726,-8.41331 33.21549,-18.02768 10.04684,-11.16358 15.19132,-26.5268 13.98828,-41.48761 -0.94159,-12.73715 -6.47114,-25.06894 -15.35266,-34.24827 -7.55204,-7.872486 -17.40402,-13.57502 -28.08191,-15.907258 -3.23165,-0.837535 -6.56695,-1.183753 -9.90188,-1.161188 -1.47299,-0.01063 -2.946054,-0.0091 -4.41905,0.0014 z m 1.83203,1.708984 c 3.45413,0.0315 6.85356,0.308759 10.23047,0.878907 1.02911,0.18357 2.08523,0.403567 3.06836,0.679687 -2.19332,8.175248 -4.37072,16.349222 -6.56055,24.523442 -4.25429,-0.90506 -8.699008,-0.94635 -12.957029,-0.0312 -2.004196,-7.74531 -4.190625,-15.445937 -6.132383,-23.207581 -0.03946,-0.410715 -0.347565,-1.007543 -0.149338,-1.315122 2.74377,-0.685475 5.666634,-1.082305 8.539714,-1.377562 1.317092,-0.113037 2.639092,-0.153921 3.960756,-0.150521 z m -14.33203,1.50586 c -0.414831,-0.45839 -1.176105,-1.015015 -0.108585,-1.053081 0.659937,-0.424782 0.03566,0.805076 0.108585,1.053081 z m 28.87695,-0.05664 c -0.59271,0.33623 -1.26729,0.008 -0.87235,-0.695801 0.22994,0.06848 0.60151,0.495173 0.87235,0.695801 z m -0.96289,0.1875 c -0.21973,0.108638 -0.19432,-0.118624 0,0 z m 1.87305,0.599609 c 4.48797,1.228802 8.69382,3.313996 12.73737,5.583544 2.79152,1.576667 5.22732,3.591585 7.71185,5.633253 0.49836,0.466209 1.19791,0.973401 1.63086,1.505861 -2.33296,2.74682 -5.06476,5.30556 -7.62116,7.91786 -3.38929,3.38975 -6.78656,6.77049 -10.1933,10.13683 -2.1104,-2.15564 -4.79704,-3.6365 -7.46228,-4.99321 -1.16753,-0.58459 -2.39035,-1.04828 -3.63537,-1.43843 2.1096,-8.16175 4.29942,-16.28811 6.57812,-24.404301 0.0846,0.01953 0.16927,0.03906 0.25391,0.05859 z m -30.000001,0.44336 c 2.209714,7.955634 4.367308,15.911358 6.431641,23.906248 -4.089836,1.30538 -7.940886,3.47023 -11.080078,6.40235 -5.973723,-5.98526 -12.028073,-11.88978 -17.898438,-17.97657 2.556115,-2.333866 5.255963,-4.535979 8.162412,-6.421397 3.832752,-2.314917 7.864343,-4.352848 12.111937,-5.790056 0.702825,-0.222949 1.406615,-0.447316 2.124089,-0.618622 0.04948,0.166016 0.09896,0.332031 0.148437,0.498047 z m 17.980471,3.199219 c -1.87512,0.210622 -3.782154,0.426572 -5.578549,1.026399 -0.864674,0.201114 -1.075035,1.534737 -0.175359,1.838835 1.298148,0.106048 2.637288,-0.3469 3.884768,-0.457031 -1.09941,1.709461 -2.383057,3.459559 -3.628909,5.128906 -0.832485,-0.515287 -1.608279,-1.440888 -2.669922,-1.355469 -0.834417,0.205677 -0.913224,1.349504 -0.232476,1.793787 0.51066,0.490325 1.089167,0.904212 1.63482,1.352702 -0.382517,0.77723 -1.027422,1.48916 -1.146484,2.36132 -0.03747,0.8939 1.178815,1.19668 1.687574,0.53463 0.505309,-0.4344 0.828358,-1.02768 1.220629,-1.55611 0.874254,0.50324 1.780338,1.49669 2.876958,1.19531 0.78119,-0.3523 0.50097,-1.40133 -0.12031,-1.76722 -0.49137,-0.42065 -1.00873,-0.81176 -1.508601,-1.22106 1.218691,-1.694491 2.416171,-3.403116 3.664061,-5.076171 0.27285,1.290348 0.2547,2.701027 0.88281,3.884765 0.62844,0.830584 1.91413,-0.08827 1.62612,-0.983974 -0.29939,-2.006943 -0.35684,-4.070257 -0.90932,-6.027744 -0.25515,-0.583467 -0.93357,-0.717607 -1.50781,-0.671875 z m -28.314455,5.265625 c -0.569286,-0.0691 -0.80089,0.620933 -1.056641,1.03125 -0.281527,0.716016 0.540476,1.11066 1.121379,1.165952 0.619009,0.275259 1.291473,0.402187 1.958699,0.496157 -0.778537,1.358705 -1.354393,2.897455 -1.152418,4.489045 0.0703,1.01393 0.151002,2.08958 -0.409309,2.98901 -0.4327,0.77319 0.293061,1.90347 1.19454,1.51413 0.451723,-0.37373 0.731585,-0.24011 1.060882,0.23047 1.08005,1.24295 3.074117,1.17249 4.396149,0.37305 1.686563,-0.99165 2.03132,-3.44416 0.855469,-4.95508 -1.04833,-1.47883 -3.262403,-1.68063 -4.785156,-0.86719 0.02682,-1.18198 0.39477,-2.3431 1.21875,-3.214841 0.516171,-0.718164 1.297192,-1.145732 1.949219,-1.703125 0.628675,-0.665082 -0.12381,-1.700112 -0.951906,-1.517138 -1.051815,0.176876 -2.091032,0.546836 -3.180199,0.415271 -0.786649,0.05232 -1.457382,-0.412415 -2.219458,-0.446961 z m 43.394535,0.30664 c -0.7975,0.169196 -1.53384,0.615805 -2.38086,0.5625 -1.06672,-0.01038 -2.20003,1.11956 -1.67774,2.183594 0.32731,0.62277 1.2394,0.57273 1.65821,0.07227 0.15407,2.356824 -0.0694,4.771224 0.50195,7.082034 0.1934,0.81139 1.42677,0.83243 1.64258,0.0293 0.32952,-1.90115 0.24051,-3.85815 0.31415,-5.78417 0.0112,-0.62728 0.0223,-1.25456 0.0335,-1.881842 0.46129,-0.0092 0.28341,0.798412 0.38734,1.125052 0.19407,2.27818 -0.10525,4.60197 0.32165,6.85542 0.19209,0.82455 1.49671,0.74054 1.58727,-0.10809 0.45741,-2.55936 0.14583,-5.19339 0.47523,-7.766913 0.17651,-0.200244 0.18018,0.867313 0.21787,1.076543 0.15001,2.38134 0.12994,4.87984 0.28994,7.30041 0.36362,0.61816 1.03363,1.03619 1.625,1.42969 1.01636,0.58182 2.29389,0.36607 3.24219,-0.24805 0.32327,0.88475 1.70964,0.82692 1.89062,-0.12109 0.17887,-0.91609 -0.11511,-1.88532 -0.45898,-2.72852 -0.57304,-0.98339 -1.83133,-0.4897 -2.70331,-0.32457 -0.69339,0.0975 -1.32702,0.78665 -1.06622,1.50426 -0.53658,-0.31607 -0.16882,-1.18548 -0.31314,-1.74155 -0.11038,-2.31039 -0.11143,-4.63544 -0.31577,-6.936186 -0.64593,-1.031517 -2.05224,-1.709159 -3.25781,-1.345703 -0.33788,0.380911 -0.66962,0.137302 -1.03955,-0.0561 -0.30334,-0.139788 -0.63985,-0.212875 -0.97412,-0.178279 z m -56.845707,5.361324 c 5.925499,5.80668 11.779877,11.76477 17.660156,17.6504 -2.948636,3.12709 -5.078706,6.97539 -6.425423,11.04193 -0.388737,0.19618 -1.080326,-0.24298 -1.582143,-0.28864 -7.641156,-2.03883 -15.272988,-4.11271 -22.908449,-6.17322 0.861378,-3.11864 2.168378,-6.10354 3.567862,-9.01523 2.382407,-4.88496 5.577247,-9.52689 9.381356,-13.49258 0.102214,0.0924 0.204428,0.1849 0.306641,0.27734 z m 77.550777,-0.16992 c 3.31568,3.42516 6.15798,7.3026 8.36924,11.52846 1.8484,3.46522 3.45605,7.06849 4.41592,10.83678 -4.95712,1.46236 -10.07228,2.73352 -15.09383,4.11254 -3.09996,0.8295 -6.19874,1.66341 -9.3007,2.48511 -1.21457,-3.90402 -3.26416,-7.55785 -5.95899,-10.63086 -0.79923,-0.46635 -0.25282,-0.90486 0.25642,-1.34413 5.73167,-5.70028 11.38969,-11.47427 17.22991,-17.06407 l 0.0733,0.068 z m -58.830074,2.62696 c 0.715737,0.13378 1.275216,0.79652 1.09961,1.54101 -0.02559,0.9236 -1.435248,1.50475 -2.021485,0.68164 -0.380347,-0.22836 -0.286195,-0.58529 -0.190827,-0.93378 -0.184345,-0.46666 0.0173,-0.79117 0.433753,-1.0613 0.190514,-0.14884 0.430711,-0.26465 0.678949,-0.22757 z m 56.884764,7.18164 c -2.49833,0.0608 -4.78586,2.36403 -4.50734,4.91239 0.0406,0.7107 0.21504,1.41619 0.51906,2.06026 -0.92423,0.16518 -1.24927,1.49552 -0.39258,1.97071 1.04259,0.39072 2.2462,0.28362 3.31641,0.0371 0.91518,-0.23166 0.81934,-1.50802 0.0955,-1.91513 -1.12532,-0.73503 -1.83823,-2.26433 -1.13264,-3.52627 0.58443,-1.34272 2.38234,-1.86495 3.58046,-1.01858 1.41607,0.85402 1.5231,3.04172 0.26603,4.08253 -0.59171,0.53126 -1.23663,1.65617 -0.36798,2.24074 1.00495,0.47595 2.23331,0.43285 3.28516,0.1289 0.81863,-0.2011 1.06447,-1.3919 0.29297,-1.81445 -0.48732,-0.2169 -0.86196,-0.23441 -0.44682,-0.80876 0.98388,-2.61515 -0.80304,-5.91802 -3.62349,-6.30257 -0.29455,-0.0337 -0.58787,-0.063 -0.88477,-0.0469 z m -37.55273,0.83203 c 4.92765,-0.0973 9.87421,1.19812 14.07791,3.6772 7.6757,4.42522 12.75185,12.92865 13.10373,21.76929 0.14007,2.85906 -0.22039,5.76115 -0.97606,8.4149 -2.55546,9.08279 -10.21759,16.59967 -19.45594,18.69577 -7.004171,1.72791 -14.645826,0.4523 -20.700552,-3.51109 -7.106263,-4.62286 -11.8498,-12.74699 -12.155057,-21.2455 -0.15191,-3.46654 0.405968,-6.96553 1.572939,-10.16772 0.802608,-2.20974 1.858481,-4.28221 3.163052,-6.17596 1.729027,-2.27852 3.708718,-4.29956 5.867473,-6.11398 4.412027,-3.37582 9.957303,-5.23193 15.502505,-5.34291 z m -31.882815,1.0625 c -1.121376,0.12314 -2.242464,0.87431 -2.462688,2.03856 -0.164531,0.64694 -0.99529,0.57305 -1.238484,0.0239 -0.585451,-1.24822 -1.940682,-2.3941 -3.394531,-1.94922 -0.974956,0.3629 -2.106601,1.24871 -1.962891,2.4043 0.162189,0.89499 1.36326,0.93683 1.826172,0.26562 0.2286,-0.43784 0.798378,-0.75773 1.177735,-0.26562 0.507998,0.86875 1.077623,1.80502 2.07988,2.17416 1.24078,0.5662 2.696112,-0.32242 3.269729,-1.45346 0.210387,-0.48094 0.482894,-1.08616 1.125,-0.92969 0.392859,0.18845 0.520941,0.80185 1.005859,0.92578 0.946944,0.3947 1.633651,-0.84914 1.232012,-1.63175 -0.473304,-0.92628 -1.629821,-1.59142 -2.657793,-1.60262 z m -6.71875,4.72461 c -1.294069,0.0969 -2.604544,1.22251 -2.560547,2.57031 0.16873,0.91392 1.363335,0.84189 1.851563,0.23437 0.345499,-0.27884 0.771427,-1.04572 1.191406,-0.45507 0.442849,0.44015 0.381741,1.17056 0.939453,1.54687 1.239777,1.22957 3.592376,1.01692 4.433594,-0.57422 0.372256,-0.39951 0.269798,-1.14265 0.902344,-1.25586 0.670247,0.45129 1.359023,1.54916 2.287109,1.03711 0.833296,-0.61656 0.116856,-1.69608 -0.416016,-2.25781 -1.253975,-1.36825 -3.721601,-0.89818 -4.481542,0.76165 -0.229456,0.26545 -0.170144,1.11477 -0.668848,0.72663 -0.873336,-0.21641 -1.114203,-1.29176 -1.81153,-1.79464 -0.421931,-0.47581 -1.056481,-0.60059 -1.666986,-0.53934 z m 74.548825,3.70117 c -1.01284,0.0966 -2.11133,-0.0773 -3.05468,0.36719 -0.68188,0.51483 -0.14118,1.55229 0.64453,1.51757 2.67827,0.23746 5.38421,0.2008 8.06616,0.0337 0.65719,0.0301 1.58744,-0.35977 1.33032,-1.16654 -0.35743,-0.84943 -1.47785,-0.62604 -2.22428,-0.71939 -1.58632,-0.0653 -3.17485,-0.0497 -4.76205,-0.0326 z m 17.26563,5.6543 c 0.79283,3.84075 1.28079,7.76121 1.31538,11.68509 -0.0922,4.31432 -0.65233,8.55078 -1.62007,12.75826 -3.22857,-0.64898 -6.37708,-1.6504 -9.56915,-2.45751 -4.96892,-1.33465 -9.94713,-2.66005 -14.90351,-4.01123 0.86533,-4.26323 0.85746,-8.69824 -0.0566,-12.95118 8.15758,-2.1866 16.31702,-4.36621 24.47461,-6.55273 0.11979,0.50976 0.23959,1.01953 0.35938,1.5293 z M 48.480469,126.61328 c 3.931669,0.88829 7.868029,2.07324 11.814995,3.09268 4.122372,1.10756 8.247472,2.2129 12.362739,3.3331 -0.872241,4.26307 -0.854491,8.69937 0.05664,12.95313 -8.174036,2.18542 -16.347868,4.3716 -24.521485,6.55859 -1.169126,-4.53169 -1.517639,-9.22037 -1.566239,-13.8703 -0.0141,-4.03081 0.664961,-8.03083 1.502016,-11.96142 -0.01136,-0.26949 0.195841,-0.0926 0.351333,-0.10578 z m 88.734371,6.37891 c -0.78451,-0.0166 -0.70212,1.04168 -0.74414,1.5957 -0.26149,0.41657 -0.59015,0.85004 -0.27699,1.34409 0.0526,0.63084 0.93608,0.54971 1.36488,0.3356 0.46404,-0.43301 0.59478,-0.24711 0.54826,0.37148 0.13003,2.12818 -0.0943,4.2874 0.26424,6.3961 0.12565,0.81717 1.37081,0.91257 1.59571,0.10937 0.40586,-1.94115 0.16496,-3.95574 0.28543,-5.92616 0.0478,-0.63126 0.0142,-1.42258 0.26925,-1.94298 0.43456,1.79435 0.20765,3.6777 0.29104,5.50933 0.0812,0.95355 -0.14528,2.07085 0.4531,2.88325 0.18426,0.49107 1.18244,-0.0234 0.95313,0.32226 -0.42819,0.67932 0.074,1.79326 0.95703,1.54883 0.41337,-0.0967 0.73004,-0.41591 0.99805,-0.72851 1.09715,1.28079 3.16503,1.31694 4.40179,0.22067 0.74615,-0.61677 1.55916,-1.73809 0.97711,-2.707 -0.55435,-0.77544 -1.83722,-0.33384 -1.86328,0.58984 -0.2233,0.45649 -0.84302,0.8081 -1.35351,0.7793 -0.82794,-0.53336 -0.0693,-1.51345 0.25991,-2.12198 0.70383,-1.24286 1.88421,-2.43142 1.80649,-3.95615 -0.15576,-1.29866 -1.45015,-2.17051 -2.65234,-2.24414 -0.24706,-1.30625 -1.55625,-2.41302 -2.91672,-2.04444 -1.16415,0.39792 -2.38217,-0.44631 -3.51454,0.1487 -0.3703,0.28768 -0.81427,-0.061 -1.1664,0.18871 -0.32063,-0.19458 -0.50803,-0.70891 -0.9375,-0.67187 z m -75.398434,0.20703 c -1.174228,0.39595 -1.711389,1.68208 -2.080078,2.76953 0.709659,-0.80201 0.386771,0.69076 0.219473,0.76297 -0.573792,-0.63712 -0.426923,0.50573 -0.617153,0.85602 0.03208,0.63712 -0.420841,0.708 -0.936695,0.62515 -0.726265,0.25171 -0.529802,-0.54929 -0.667578,-0.99219 -0.344388,-1.37278 -0.717207,-2.91839 -1.839844,-3.87109 -0.665819,-0.51643 -1.797094,0.18222 -1.441406,1.01367 0.429114,1.2981 1.175848,2.50186 1.3125,3.88867 -0.837821,0.14985 -2.131486,0.10548 -2.371094,1.14649 -0.04917,1.03199 1.211302,1.15584 1.978154,1.14011 0.597595,-0.15908 0.284703,0.50092 0.256127,0.85988 -0.209155,1.25064 -0.949842,2.33766 -1.312406,3.52149 -0.05397,0.97501 1.304978,1.15551 1.820313,0.48242 1.126758,-1.35141 1.589674,-3.14093 1.767578,-4.86132 0.45299,0.11776 1.389765,-0.3084 1.362512,0.41817 0.398818,1.64503 0.58278,3.64981 2.112097,4.67948 0.77986,0.42367 1.546015,-0.554 1.157724,-1.27565 -0.501012,-1.24471 -1.069848,-2.49284 -1.144052,-3.85716 0.821615,-0.0336 2.092317,-0.26417 2.044922,-1.32422 -0.170773,-0.91792 -1.269741,-0.99535 -2.025391,-0.96875 0.09241,-1.39941 0.859448,-2.60556 1.294922,-3.90039 0.185146,-0.57132 -0.274027,-1.22022 -0.890625,-1.11328 z m 76.603514,1.76953 c -0.63047,-0.5365 -0.39095,-1.13855 0.22201,-0.82337 -0.074,0.27446 -0.148,0.54891 -0.22201,0.82337 z m 4.9707,0.58008 c 0.1769,2.10441 0.10661,4.36595 -0.12695,6.3457 -0.0695,0.46518 -0.58426,1.34307 -0.32547,0.37898 0.2328,-2.23971 0.15333,-4.52396 0.37235,-6.72468 l 0.0527,-0.002 z m 2.73829,2.26758 c 0.44642,0.20943 -0.31739,1.19728 -0.19986,0.66742 0.0802,-0.14441 0.0411,-0.74055 0.19986,-0.66742 z m -72.623051,10.92968 c 1.258561,3.58639 3.214579,6.9589 5.735766,9.80398 0.826892,0.47064 0.03628,0.90736 -0.384426,1.35184 -5.716991,5.66972 -11.361029,11.415 -17.18923,16.97114 -6.073504,-6.24029 -10.524018,-14.03494 -12.878907,-22.41407 8.121459,-2.28349 16.254809,-4.47184 24.421876,-6.58593 0.09831,0.29101 0.196614,0.58203 0.294921,0.87304 z m 54.675781,-0.79687 c 8.02079,2.09045 16.03081,4.23268 24.02849,6.40822 0.42627,0.2064 -0.13729,0.89784 -0.15934,1.2836 -1.2682,3.74887 -2.91727,7.39317 -4.8086,10.8238 -2.1848,3.84098 -4.88437,7.38508 -7.93555,10.57813 -5.96134,-6.00416 -11.92227,-12.00872 -17.88281,-18.01367 2.55677,-2.82599 4.68781,-6.07029 5.9429,-9.6856 0.18642,-0.48463 0.35258,-0.97673 0.52975,-1.46479 0.0951,0.0234 0.19011,0.0469 0.28516,0.0703 z m 7.85156,5.1543 c -1.34751,0.26122 -2.60557,1.2722 -3.0664,2.58007 -0.25977,0.97157 0.19389,1.93531 0.39648,2.875 -1.22761,-0.154 -2.45734,0.34638 -3.22984,1.31258 -1.1635,1.12816 -1.35602,3.06782 -0.35507,4.36287 0.73086,1.05139 1.88348,2.03648 3.25495,1.82699 2.29241,-0.0733 4.3003,-2.55419 3.53141,-4.80338 -0.37976,-1.72318 -1.35116,-3.31584 -1.43582,-5.09359 0.19229,-1.04153 1.73629,-1.02176 2.31836,-0.35742 0.37054,1.10187 -0.0135,2.3068 -0.11454,3.43456 -0.15046,1.61242 -0.8056,3.35602 -0.0515,4.90528 0.78931,1.36495 2.65738,2.33443 4.13672,1.43555 0.80156,-0.37019 1.82382,-1.2209 1.31445,-2.19922 -0.45318,-0.74401 -1.40753,-0.3346 -1.88146,0.16455 -0.45213,0.5298 -1.25416,0.20802 -1.61854,-0.24267 -0.2873,-1.46739 0.19357,-2.96429 0.30469,-4.4336 0.1306,-1.61463 0.48135,-3.59155 -0.81641,-4.8457 -0.73945,-0.59007 -1.74289,-0.93452 -2.6875,-0.92187 z m -75.921872,2.26562 c -1.866441,0.17852 -3.151591,2.20697 -2.894531,3.98047 0.214587,0.92766 1.566798,0.84335 1.851562,0.0117 0.207502,-0.56024 0.173037,-1.24701 0.784546,-1.58068 0.559094,-0.62967 1.484114,-0.0515 1.779907,0.54357 0.573226,2.26789 0.707811,4.6244 1.091537,6.92947 0.176322,0.87303 0.07885,2.24036 1.160417,2.52561 1.011762,0.13442 1.257306,-1.0585 1.364339,-1.81668 0.495157,-2.55967 0.672476,-5.18668 1.340467,-7.71064 0.264913,-1.0949 1.88929,-0.83117 2.2411,0.0763 0.248213,0.64118 0.358385,1.67066 1.27089,1.64636 1.08133,-0.12437 1.162553,-1.49097 0.726563,-2.26367 -0.59847,-1.51405 -2.262269,-2.64091 -3.90625,-2.19727 -1.512053,0.32355 -2.54876,1.73551 -2.71579,3.22723 -0.103173,0.92624 -0.153424,0.0362 -0.256866,-0.33856 -0.370465,-1.66963 -2.079596,-3.17185 -3.837891,-3.0332 z m 21.476563,5.51953 c 2.836652,2.48935 6.173965,4.42925 9.736328,5.67383 0.628504,0.10888 1.077916,0.31976 0.682249,0.98819 -2.03075,7.77684 -4.061669,15.56506 -6.212542,23.301 0.0034,0.79365 -0.695109,0.31452 -1.138526,0.21765 -4.586612,-1.44426 -8.978052,-3.4809 -13.036761,-6.06079 -3.044315,-1.8964 -5.796484,-4.14519 -8.421373,-6.60621 5.81328,-6.11922 11.859051,-12.04676 17.80664,-18.05273 0.194662,0.17969 0.389323,0.35937 0.583985,0.53906 z m 47.394529,8.33594 c 3.00924,3.02277 6.04387,6.02247 8.95899,9.13672 -3.15417,3.14251 -6.79422,5.76287 -10.65079,7.97587 -3.67678,2.20872 -7.80279,3.78871 -11.8375,4.97725 -1.89642,-6.83992 -3.69289,-13.70874 -5.52123,-20.56751 -0.33944,-1.29824 -0.68731,-2.59429 -1.00806,-3.89733 3.57348,-1.16255 6.98239,-2.89657 9.83826,-5.36005 0.4512,-0.36297 0.88401,-0.74793 1.3258,-1.12237 2.96484,2.95247 5.92969,5.90495 8.89453,8.85742 z m 4.01953,-8.55469 c 0.97147,0.19548 1.99429,1.30703 1.35099,2.30389 -0.40834,1.26228 -2.31263,1.19316 -2.81974,0.0457 -0.32848,-0.58643 -0.41776,-1.38628 0.21485,-1.79883 0.33228,-0.32264 0.76597,-0.62194 1.2539,-0.55078 z m -25.85547,7.13867 c 2.03513,7.64963 4.20647,15.28217 6.04493,22.99024 0.0797,0.5343 0.52493,1.31751 -0.35927,1.24365 -4.19085,0.84931 -8.47128,1.50313 -12.7454,1.41865 -4.168106,0.0143 -8.293309,-0.62991 -12.377756,-1.54121 1.091442,-5.16788 2.57469,-10.24435 3.906155,-15.35416 0.823154,-3.0563 1.632852,-6.1044 2.466892,-9.15365 4.265734,0.81794 8.688219,0.82843 12.953129,-0.004 0.0371,0.13347 0.0742,0.26693 0.11132,0.40039 z m 12.88086,2.02539 c -2.20049,0.15039 -4.46279,1.35909 -5.27539,3.50586 -0.82965,1.60439 0.22811,3.5073 1.57769,4.44754 1.20603,0.88813 2.92304,0.65302 4.10591,-0.0315 0.0121,0.96694 0.35018,1.92268 0.91601,2.70312 -1.32547,-0.10775 -2.5596,-0.73587 -3.50395,-1.65382 -0.59783,-0.57227 -1.72434,-0.18382 -1.66591,0.69711 0.10022,1.14782 1.31995,1.72543 2.20037,2.25481 2.77855,1.49928 6.68603,1.04506 8.73486,-1.45987 1.56165,-1.81771 0.79087,-5.01902 -1.46993,-5.85877 -1.08703,-0.40445 -2.34439,-0.29008 -3.38333,0.20414 -0.27587,-0.91856 -0.6768,-1.81538 -1.26172,-2.58008 0.99865,-4e-5 2.06737,0.17938 2.88326,0.88467 0.63603,0.37867 1.47596,1.31097 2.22612,0.63681 0.61629,-0.72922 -0.20615,-1.60105 -0.69525,-2.15084 -1.42585,-1.30845 -3.50705,-1.71806 -5.38874,-1.59916 z m -44.626949,0.13672 c -0.64381,-0.1976 -0.670362,0.52046 -0.84684,0.96361 -0.42986,0.94325 0.284242,1.79736 0.829576,2.49943 0.120739,0.30323 0.637117,0.71495 0.471097,0.96033 -1.393509,1.38684 -1.970613,3.73672 -0.878386,5.47335 0.578024,1.19316 1.576983,2.35944 2.998771,2.42946 1.753844,0.21382 3.767877,-0.25381 4.777344,-1.82618 1.344914,-1.86661 1.035605,-4.7132 -0.742187,-6.19531 0.860183,-0.84234 1.587246,-2.05491 1.453125,-3.29492 -0.0544,-0.80616 -1.177096,-1.26474 -1.640625,-0.51367 -0.316363,0.89015 -0.761179,1.79948 -1.595082,2.32425 -1.13416,0.86576 -2.72662,0.19698 -3.385387,-0.93558 -0.453603,-0.64368 -0.437666,-1.80868 -1.441406,-1.88477 z m 43.167969,3.13282 c 1.18411,0.0654 1.80324,1.63351 0.96635,2.48109 -0.51865,0.59253 -1.65893,1.03511 -2.22019,0.27317 -0.84956,-0.64239 -0.92798,-2.17537 0.15814,-2.61364 0.34471,-0.14479 0.7259,-0.18372 1.0957,-0.14062 z m -22.167969,1.64257 c -0.463828,0.05 -1.033907,0.23667 -1.144532,0.74414 0.167941,-0.75181 1.010884,1.09169 0.39662,0.6731 -0.613356,-0.2484 0.06011,0.40499 0.206896,0.56714 0.373394,0.4509 0.979685,0.76626 1.270778,1.22694 0.02722,2.25251 0.05679,4.50499 0.0886,6.75743 -0.817867,0.59885 -1.916989,1.39334 -1.767578,2.53907 0.257211,0.88016 1.430334,0.73969 1.874608,0.0966 1.302745,-1.27728 3.43838,-1.64581 5.10259,-0.88006 0.99269,0.24222 1.55152,1.45456 2.63608,1.36747 0.81928,-0.16235 0.82627,-1.23159 0.2859,-1.71442 -0.52241,-0.69047 -1.21295,-1.25193 -1.90894,-1.74066 -0.25813,-1.79933 -0.23654,-3.63697 -0.25069,-5.45326 -0.0489,-0.77858 0.8934,-1.02656 1.3249,-1.53697 0.56795,-0.54541 1.58383,-1.22003 1.16211,-2.125 -0.50035,-0.87653 -1.62421,-0.32627 -2.1385,0.24073 -1.44685,1.1622 -3.546639,1.37951 -5.191122,0.50204 -0.575359,-0.12375 -0.76089,-0.65919 -1.150842,-1.00254 -0.236731,-0.13783 -0.515076,-0.30643 -0.796875,-0.26172 z m -17.285157,0.70508 c 1.274401,-0.037 2.428711,1.035 2.365235,2.33203 0.103053,1.54551 -1.479783,2.86073 -2.974281,2.45555 -1.385248,-0.33533 -2.509847,-1.97597 -1.776796,-3.3441 0.371016,-0.94816 1.3967,-1.48765 2.385842,-1.44348 z m 45.447266,0.85938 c 1.41642,0.23125 1.71225,2.42542 0.42927,3.03914 -1.17999,0.61453 -3.00301,-0.77654 -2.25938,-2.05109 0.34136,-0.6573 1.07453,-1.13109 1.83011,-0.98805 z m -24.29883,2.40429 c 0.52423,-0.0233 1.07006,-0.0639 0.84961,0.63125 0,1.50703 0,3.01407 0,4.5211 -0.50436,-0.0682 -1.304045,0.16135 -1.640624,-0.0785 0,-1.70104 0,-3.40208 0,-5.10312 0.263672,0.01 0.527344,0.0195 0.791014,0.0293 z"
       style="fill:#ffffff;stroke-width:0.264583"
       id="path26" />
  </g>
</svg>
